<svg width="24" height="14" fill="none" xmlns="http://www.w3.org/2000/svg"><path fill-rule="evenodd" clip-rule="evenodd" d="M21.5494 0.0107395C21.5351 0.0154298 21.4352 0.0396542 21.3275 0.0645981C21.2199 0.0895154 21.0378 0.15518 20.9229 0.210504C20.5674 0.381781 20.6571 0.298954 18.7432 2.22372C16.922 4.0552 15.1329 5.84853 15.1146 5.86087C15.1037 5.8682 14.4502 6.52319 13.6624 7.31638C12.8746 8.10958 12.1942 8.78925 12.1504 8.82672L12.0706 8.89486L11.9807 8.80942C11.7426 8.5833 8.72331 5.69103 7.17885 4.20961C4.40276 1.54684 3.78369 0.954399 3.58947 0.774568C3.37938 0.58008 2.95132 0.352546 2.64971 0.275076C2.38227 0.206374 1.90544 0.212423 1.63163 0.288001C1.1766 0.413574 0.744125 0.695419 0.471462 1.04407C-0.179221 1.87605 -0.15343 3.11418 0.530537 3.88012C0.604909 3.9634 2.4865 5.7773 4.71189 7.91096C6.93726 10.0447 9.16578 12.1823 9.66414 12.6614C10.7461 13.7014 10.8452 13.7772 11.3211 13.9277C11.5414 13.9974 11.575 14.0005 12.0996 14C12.6225 13.9994 12.6586 13.996 12.8827 13.926C13.1458 13.8439 13.3927 13.7148 13.5875 13.5577C13.6593 13.4998 13.9236 13.2456 14.1749 12.9929C14.4261 12.7402 15.6185 11.5457 16.8245 10.3384C18.0305 9.13119 19.3287 7.83072 19.7094 7.44854C21.1821 5.96978 21.9171 5.2325 22.6589 4.48975C23.0824 4.06568 23.4843 3.64883 23.5519 3.56344C23.7263 3.34332 23.8453 3.11328 23.9282 2.83615C23.9929 2.62007 24 2.55667 24 2.19656C24 1.83786 23.9927 1.77267 23.9294 1.56171C23.8416 1.2691 23.7877 1.15909 23.6021 0.893451C23.2022 0.32094 22.5543 -0.00586318 21.8312 7.96665e-05C21.6906 0.0012256 21.5638 0.00602251 21.5494 0.0107395Z" fill="#ABABAE"/></svg>