<svg width="6" height="6" fill="none" xmlns="http://www.w3.org/2000/svg"><path fill-rule="evenodd" clip-rule="evenodd" d="M5.66889 0.0261299C5.52737 0.0896549 5.40421 0.204147 4.96351 0.681828C3.71992 2.02977 2.86376 3.11054 2.00323 4.41878C1.94703 4.50422 1.89754 4.56987 1.89324 4.56467C1.88895 4.55947 1.84418 4.48956 1.79376 4.40933C1.52574 3.98286 1.19805 3.5636 0.932098 3.30687C0.608587 2.99461 0.418412 2.86876 0.269998 2.86876C0.190705 2.86876 0.149381 2.88882 0.092509 2.95492C-0.0206781 3.0865 -0.0302061 3.23882 0.0650617 3.39395C0.0867398 3.42926 0.164219 3.52116 0.237252 3.59819C0.655352 4.0392 1.05471 4.71076 1.37982 5.51951C1.42014 5.6198 1.47117 5.7309 1.49323 5.76639C1.64806 6.01557 1.90552 6.07091 2.14195 5.90583C2.23021 5.84421 2.28298 5.77053 2.41791 5.52053C3.04721 4.35448 3.69779 3.31916 4.33725 2.46611C4.55883 2.17052 4.82083 1.84497 5.27579 1.29992C5.47362 1.06291 5.68128 0.813442 5.73725 0.745552C5.91404 0.531063 5.98947 0.389214 5.9984 0.254461C6.00265 0.1902 5.99938 0.17057 5.97705 0.12608C5.91765 0.0077948 5.79694 -0.0313613 5.66889 0.0261299Z" fill="white"/></svg>