<svg width="16" height="16" fill="none" xmlns="http://www.w3.org/2000/svg"><path fill-rule="evenodd" clip-rule="evenodd" d="M2.03658 0.0166099C1.78469 0.0548278 1.57402 0.121935 1.33954 0.238671C1.11109 0.352399 0.947748 0.470938 0.741169 0.672928C0.510502 0.898459 0.353383 1.11229 0.230109 1.36846C0.0737047 1.69345 0 2.03198 0 2.4254C0 2.98197 0.146428 3.43794 0.46434 3.87126C0.529813 3.96051 1.01171 4.45205 2.57177 6.02094L4.59431 8.0549L2.67172 9.98522C1.6143 11.0469 0.707796 11.9649 0.657269 12.0251C0.426493 12.3005 0.259252 12.6391 0.17631 12.9989C0.125929 13.2175 0.107066 13.5944 0.13405 13.8433C0.191935 14.3772 0.405582 14.835 0.782555 15.2329C1.12979 15.5995 1.5574 15.8472 2.0053 15.9411C2.26609 15.9958 2.55022 16.0137 2.76999 15.9893C3.27729 15.9328 3.65151 15.7842 4.03679 15.4862C4.08013 15.4526 4.99522 14.5424 6.07034 13.4634L8.02509 11.5016L9.8768 13.3599C10.8952 14.3819 11.764 15.2458 11.8073 15.2795C12.1621 15.5557 12.5435 15.7087 13.0154 15.7641C13.2633 15.7932 13.4471 15.7868 13.7332 15.7389C14.6571 15.5842 15.4727 14.7856 15.661 13.8515C15.7382 13.4684 15.7228 13.0202 15.6197 12.652C15.5439 12.3811 15.4082 12.1112 15.2279 11.8729C15.1774 11.8061 14.4943 11.1103 13.3027 9.91203L11.4558 8.05466L13.4144 6.0878C14.5722 4.92517 15.4132 4.07113 15.4713 3.99914C15.6053 3.83309 15.6754 3.72288 15.7655 3.53633C15.9385 3.17842 16.0123 2.81403 15.9984 2.3868C15.9913 2.17005 15.9625 1.97355 15.9107 1.78832C15.7176 1.09851 15.1449 0.469428 14.4642 0.199503C14.3238 0.143808 14.0672 0.0778584 13.9227 0.0603327C13.7842 0.0435378 13.3541 0.0430995 13.2295 0.0596143C12.8326 0.112301 12.4661 0.262189 12.1346 0.507451C12.0773 0.549822 11.3 1.32115 10.0344 2.5913L8.02505 4.60789L6.00365 2.5788C4.6679 1.23798 3.9482 0.524087 3.88186 0.474153C3.6121 0.271043 3.35195 0.144916 3.03877 0.0653992C2.95095 0.0430994 2.83 0.0188996 2.76999 0.0116165C2.62433 -0.00604317 2.16538 -0.00292528 2.03658 0.0166099Z" fill="white"/></svg>