<svg width="752" height="88" fill="none" xmlns="http://www.w3.org/2000/svg"><path d="M94.44 65.12H103.92V66.92H85.68V69.32H97.44V71.72H87.12V74.12H88.44V75.92H87.6V77.12H85.08V78.32H84.96V79.52H87.48V81.92H90.96V82.76C90.96 82.92 90.92 83.04 90.84 83.12H69.48C69.4 83.28 69.36 83.48 69.36 83.72H77.64C77.4 84.52 76.96 85.12 76.32 85.52H74.04C73.64 85.84 73.08 86 72.36 86H9.84C9.2 86 8.6 85.84 8.04 85.52H10.32C9.76 85.12 9.32 84.52 9 83.72H0.599999C0.52 83.56 0.48 83.36 0.48 83.12H21.96V81.92H18.48V79.52H15.96V78.32H16.08V77.12H18.6V75.92H19.44V74.12H18.12V71.72H28.44V69.32H16.68V66.92H34.92V65.12H25.44V63.92H28.2V62.72H29.4V61.52H16.08V60.32H12.96V58.52H24.12V57.92H15.24V56.72H17.88V55.52H19.8V53.72H19.56V51.32H18.36V48.92H16.56V47.72H18V45.32H16.68V44.12H18.6V42.32H19.08V40.52H21.24V39.92H19.2V37.52H17.4V35.72H17.88V33.92H18.12V31.52H19.92V29.12H17.28V26.72H17.64V24.32H21V22.52H19.2V20.72H18.24V20.12H23.28V18.32H32.16V17.12H28.56V15.92H16.92V15.32H18.24V13.52H18.36V11.72H18.72V9.31999H18.6V6.32H18.36V5.24C18.36 4.91999 18.4 4.68 18.48 4.52H17.28C17.6 2.84 18.64 1.99999 20.4 1.99999H81.96C83.8 1.99999 84.84 2.84 85.08 4.52H86.28C86.36 4.68 86.4 4.91999 86.4 5.24V6.32H86.64V9.31999H86.76V11.72H86.4V13.52H86.28V15.32H84.96V15.92H96.6V17.12H100.2V18.32H91.32V20.12H86.28V20.72H87.24V22.52H89.04C88.88 23.32 88.6 23.92 88.2 24.32H84.84C84.28 25.04 83.48 25.4 82.44 25.4H46.44V26.72H46.08V29.12H48.72V31.52H46.92V32.96H80.28C81.16 32.96 81.92 33.28 82.56 33.92H82.32C82.72 34.32 83 34.92 83.16 35.72H82.8V37.52H84.6V39.92H86.64V40.52H84.48V42.32H84V44.12H82.08V45.32H83.4V47.72H81.96V48.92H83.76V51.32H84.96V51.8C84.96 52.68 84.76 53.32 84.36 53.72H84.6C83.96 54.6 83.08 55.04 81.96 55.04H48.6V55.52H46.68V56.72H44.04V57.92H52.92V58.52H41.76V60.32H44.88V61.52H58.2V62.6H95.16C95.56 62.6 95.88 62.64 96.12 62.72H94.8C95.6 62.96 96.2 63.36 96.6 63.92H93.84C94.16 64.4 94.36 64.8 94.44 65.12ZM175.079 38.12H169.199C169.119 38.44 169.039 38.76 168.959 39.08C168.879 39.32 168.759 39.6 168.599 39.92H171.959L171.599 41.12H168.719C168.479 41.84 168.159 42.64 167.759 43.52H165.959C165.639 44.32 165.199 45.12 164.639 45.92H164.879C164.559 46.32 164.279 46.72 164.039 47.12C163.799 47.52 163.519 47.92 163.199 48.32H176.159L174.599 50.12H163.919C163.599 50.52 163.199 50.92 162.719 51.32C162.239 51.72 161.799 52.12 161.399 52.52H162.959C162.639 52.84 162.239 53.16 161.759 53.48C161.359 53.72 160.959 54 160.559 54.32H164.519L164.039 54.68L165.119 56.72H162.239L163.559 59.12H163.919L164.279 59.72H164.159L165.359 62.12H166.559L167.279 63.32H158.039L158.999 65.12H167.399L168.119 66.32H165.479L166.439 68.12H178.319L179.639 70.52H171.719L172.679 72.32H168.959L170.879 75.92H171.719L172.439 77.12H172.079L172.439 77.72H166.799L168.119 80.12L168.359 80.72H164.639L165.239 82.04C165.479 82.36 165.599 82.72 165.599 83.12H168.119V83.36C168.119 84.24 167.759 84.96 167.039 85.52H170.279C169.879 85.84 169.359 86 168.719 86H144.119C143.639 86 143.199 85.96 142.799 85.88C142.479 85.72 142.119 85.6 141.719 85.52H138.479C137.839 85.2 137.279 84.8 136.799 84.32C136.399 83.84 136.079 83.44 135.839 83.12H133.439L133.199 82.76L132.359 80.72H136.199L135.839 80.12H124.439V80.72H118.319V83.12H128.039C127.879 84.24 127.359 85.04 126.479 85.52H125.639C125.079 85.84 124.479 86 123.839 86H100.319C99.5991 86 99.0391 85.84 98.6391 85.52H99.5991C98.7191 85.04 98.1991 84.24 98.0391 83.12H88.4391C88.4391 83.04 88.4391 83 88.4391 83C88.3591 82.92 88.3191 82.84 88.3191 82.76V80.72H94.4391V80.12H106.439V77.72H93.5991V77.12H101.159V75.92H98.6391V74.12H102.839V72.32H95.9991V70.52H105.239V68.12H99.9591V66.32H99.8391V65.72H99.1191V65.12H95.8791V63.32H99.9591V62.12H98.8791V59.72H98.9991V59.12H98.6391V56.72H101.519V54.32H97.4391V52.52H95.8791V50.12H106.439V48.32H93.4791V45.92H93.2391V43.52H95.0391V41.12H97.7991V39.92H94.4391V38.12H100.319V36.92H108.959V35.72H97.0791V35.12H97.6791V34.52H98.7591V33.92H98.8791V32.72H98.6391V30.92H99.1191V28.52H98.5191V27.32H99.1191V25.52H98.6391V24.92H98.9991V23.72H98.8791V23.12H98.3991V22.52H99.4791V20.72H100.439V18.92H94.7991V16.52H96.1191V14.12H95.3991V12.32H98.6391V10.52H99.8391V8.71999H97.6791V7.51999H98.5191V6.92H98.7591V5.12H98.9991C98.9991 4.23999 99.3591 3.43999 100.079 2.72H106.559C107.039 2.24 107.719 1.99999 108.599 1.99999H144.119C147.559 1.99999 150.759 2.24 153.719 2.72H147.359C150.559 3.2 153.599 4 156.479 5.12H156.239C157.599 5.6 158.919 6.2 160.199 6.92H159.959L161.039 7.51999H160.079C160.479 7.68 160.799 7.88 161.039 8.11999C161.359 8.36 161.679 8.56 161.999 8.71999H164.159C164.559 9.03999 164.959 9.35999 165.359 9.68C165.759 9.92 166.119 10.2 166.439 10.52H165.239C165.639 10.84 165.959 11.16 166.199 11.48C166.519 11.72 166.839 12 167.159 12.32H163.919C164.239 12.64 164.519 12.96 164.759 13.28C164.999 13.52 165.239 13.8 165.479 14.12H166.079C166.719 14.92 167.279 15.72 167.759 16.52H166.559C166.799 16.84 166.999 17.24 167.159 17.72C167.399 18.12 167.639 18.52 167.879 18.92H173.519L174.239 20.72H173.279C173.359 21.04 173.439 21.36 173.519 21.68C173.679 21.92 173.799 22.2 173.879 22.52H172.679L172.919 23.12H173.399C173.479 23.28 173.519 23.48 173.519 23.72L173.879 24.92H174.239C174.239 25.16 174.279 25.36 174.359 25.52H174.479C174.559 25.84 174.599 26.16 174.599 26.48C174.679 26.72 174.719 27 174.719 27.32H173.159C173.159 27.48 173.159 27.68 173.159 27.92C173.159 28.16 173.199 28.36 173.279 28.52H173.999C173.999 28.92 173.999 29.32 173.999 29.72C174.079 30.12 174.119 30.52 174.119 30.92V32.12H174.839V32.72H174.119V33.92H172.919C172.919 34 172.879 34.08 172.799 34.16C172.799 34.24 172.799 34.36 172.799 34.52H173.999C173.999 34.6 173.959 34.68 173.879 34.76C173.879 34.84 173.879 34.96 173.879 35.12H179.519C179.439 35.28 179.399 35.48 179.399 35.72H180.959L180.839 36.92H175.319C175.159 37.4 175.079 37.8 175.079 38.12ZM127.079 35.72H138.959V36.92H130.319V37.04H139.079C139.639 37.04 140.079 37 140.399 36.92H145.919C146.799 36.68 147.599 36.28 148.319 35.72H146.639L147.239 35.12H141.599C141.839 34.88 141.999 34.68 142.079 34.52H140.879L141.239 33.92H142.439L142.799 32.72H143.399C143.479 32.56 143.519 32.36 143.519 32.12H142.799L142.919 30.92C142.919 30.12 142.799 29.32 142.559 28.52H141.839C141.759 28.36 141.679 28.16 141.599 27.92C141.599 27.68 141.519 27.48 141.359 27.32H143.039C142.719 26.68 142.279 26.08 141.719 25.52H141.479C141.239 25.28 140.959 25.08 140.639 24.92H140.279C139.479 24.52 138.639 24.32 137.759 24.32H128.999V24.92H128.639V25.52H129.119V27.32H128.519V28.52H129.119V30.92H128.639V32.72H128.879V33.92H128.759V34.52H127.679V35.12H127.079V35.72ZM136.559 63.32L136.079 62.12H134.759L133.799 59.84H128.879V62.12H129.959V63.32H136.559ZM125.879 63.32V65.12H128.159L127.439 63.32H125.879ZM136.799 65.72L136.559 65.12H129.119V65.72H129.839V66.32H129.959V68.12H135.239V70.52H125.999V72.32H132.839V74.12H128.639V75.92H131.159V77.12H123.599V77.72H140.519L140.159 77.12H140.519L139.919 75.92H138.959L138.239 74.12L137.399 72.32H141.239L140.399 70.52H148.199L147.119 68.12H135.239L134.519 66.32H137.159L136.799 65.72ZM261.681 38.12H255.801C255.721 38.44 255.641 38.76 255.561 39.08C255.481 39.32 255.361 39.6 255.201 39.92H258.561L258.201 41.12H255.321C255.081 41.84 254.761 42.64 254.361 43.52H252.561C252.241 44.32 251.801 45.12 251.241 45.92H251.481C251.161 46.32 250.881 46.72 250.641 47.12C250.401 47.52 250.121 47.92 249.801 48.32H262.761L261.201 50.12H250.521C250.201 50.52 249.801 50.92 249.321 51.32C248.841 51.72 248.401 52.12 248.001 52.52H249.561C249.241 52.84 248.841 53.16 248.361 53.48C247.961 53.72 247.561 54 247.161 54.32H251.121L250.641 54.68L251.721 56.72H248.841L250.161 59.12H250.521L250.881 59.72H250.761L251.961 62.12H253.161L253.881 63.32H244.641L245.601 65.12H254.001L254.721 66.32H252.081L253.041 68.12H264.921L266.241 70.52H258.321L259.281 72.32H255.561L257.481 75.92H258.321L259.041 77.12H258.681L259.041 77.72H253.401L254.721 80.12L254.961 80.72H251.241L251.841 82.04C252.081 82.36 252.201 82.72 252.201 83.12H254.721V83.36C254.721 84.24 254.361 84.96 253.641 85.52H256.881C256.481 85.84 255.961 86 255.321 86H230.721C230.241 86 229.801 85.96 229.401 85.88C229.081 85.72 228.721 85.6 228.321 85.52H225.081C224.441 85.2 223.881 84.8 223.401 84.32C223.001 83.84 222.681 83.44 222.441 83.12H220.041L219.801 82.76L218.961 80.72H222.801L222.441 80.12H211.041V80.72H204.921V83.12H214.641C214.481 84.24 213.961 85.04 213.081 85.52H212.241C211.681 85.84 211.081 86 210.441 86H186.921C186.201 86 185.641 85.84 185.241 85.52H186.201C185.321 85.04 184.801 84.24 184.641 83.12H175.041C175.041 83.04 175.041 83 175.041 83C174.961 82.92 174.921 82.84 174.921 82.76V80.72H181.041V80.12H193.041V77.72H180.201V77.12H187.761V75.92H185.241V74.12H189.441V72.32H182.601V70.52H191.841V68.12H186.561V66.32H186.441V65.72H185.721V65.12H182.481V63.32H186.561V62.12H185.481V59.72H185.601V59.12H185.241V56.72H188.121V54.32H184.041V52.52H182.481V50.12H193.041V48.32H180.081V45.92H179.841V43.52H181.641V41.12H184.401V39.92H181.041V38.12H186.921V36.92H195.561V35.72H183.681V35.12H184.281V34.52H185.361V33.92H185.481V32.72H185.241V30.92H185.721V28.52H185.121V27.32H185.721V25.52H185.241V24.92H185.601V23.72H185.481V23.12H185.001V22.52H186.081V20.72H187.041V18.92H181.401V16.52H182.721V14.12H182.001V12.32H185.241V10.52H186.441V8.71999H184.281V7.51999H185.121V6.92H185.361V5.12H185.601C185.601 4.23999 185.961 3.43999 186.681 2.72H193.161C193.641 2.24 194.321 1.99999 195.201 1.99999H230.721C234.161 1.99999 237.361 2.24 240.321 2.72H233.961C237.161 3.2 240.201 4 243.081 5.12H242.841C244.201 5.6 245.521 6.2 246.801 6.92H246.561L247.641 7.51999H246.681C247.081 7.68 247.401 7.88 247.641 8.11999C247.961 8.36 248.281 8.56 248.601 8.71999H250.761C251.161 9.03999 251.561 9.35999 251.961 9.68C252.361 9.92 252.721 10.2 253.041 10.52H251.841C252.241 10.84 252.561 11.16 252.801 11.48C253.121 11.72 253.441 12 253.761 12.32H250.521C250.841 12.64 251.121 12.96 251.361 13.28C251.601 13.52 251.841 13.8 252.081 14.12H252.681C253.321 14.92 253.881 15.72 254.361 16.52H253.161C253.401 16.84 253.601 17.24 253.761 17.72C254.001 18.12 254.241 18.52 254.481 18.92H260.121L260.841 20.72H259.881C259.961 21.04 260.041 21.36 260.121 21.68C260.281 21.92 260.401 22.2 260.481 22.52H259.281L259.521 23.12H260.001C260.081 23.28 260.121 23.48 260.121 23.72L260.481 24.92H260.841C260.841 25.16 260.881 25.36 260.961 25.52H261.081C261.161 25.84 261.201 26.16 261.201 26.48C261.281 26.72 261.321 27 261.321 27.32H259.761C259.761 27.48 259.761 27.68 259.761 27.92C259.761 28.16 259.801 28.36 259.881 28.52H260.601C260.601 28.92 260.601 29.32 260.601 29.72C260.681 30.12 260.721 30.52 260.721 30.92V32.12H261.441V32.72H260.721V33.92H259.521C259.521 34 259.481 34.08 259.401 34.16C259.401 34.24 259.401 34.36 259.401 34.52H260.601C260.601 34.6 260.561 34.68 260.481 34.76C260.481 34.84 260.481 34.96 260.481 35.12H266.121C266.041 35.28 266.001 35.48 266.001 35.72H267.561L267.441 36.92H261.921C261.761 37.4 261.681 37.8 261.681 38.12ZM213.681 35.72H225.561V36.92H216.921V37.04H225.681C226.241 37.04 226.681 37 227.001 36.92H232.521C233.401 36.68 234.201 36.28 234.921 35.72H233.241L233.841 35.12H228.201C228.441 34.88 228.601 34.68 228.681 34.52H227.481L227.841 33.92H229.041L229.401 32.72H230.001C230.081 32.56 230.121 32.36 230.121 32.12H229.401L229.521 30.92C229.521 30.12 229.401 29.32 229.161 28.52H228.441C228.361 28.36 228.281 28.16 228.201 27.92C228.201 27.68 228.121 27.48 227.961 27.32H229.641C229.321 26.68 228.881 26.08 228.321 25.52H228.081C227.841 25.28 227.561 25.08 227.241 24.92H226.881C226.081 24.52 225.241 24.32 224.361 24.32H215.601V24.92H215.241V25.52H215.721V27.32H215.121V28.52H215.721V30.92H215.241V32.72H215.481V33.92H215.361V34.52H214.281V35.12H213.681V35.72ZM223.161 63.32L222.681 62.12H221.361L220.401 59.84H215.481V62.12H216.561V63.32H223.161ZM212.481 63.32V65.12H214.761L214.041 63.32H212.481ZM223.401 65.72L223.161 65.12H215.721V65.72H216.441V66.32H216.561V68.12H221.841V70.52H212.601V72.32H219.441V74.12H215.241V75.92H217.761V77.12H210.201V77.72H227.121L226.761 77.12H227.121L226.521 75.92H225.561L224.841 74.12L224.001 72.32H227.841L227.001 70.52H234.801L233.721 68.12H221.841L221.121 66.32H223.761L223.401 65.72ZM347.696 39.92H353.696V42.32H352.616V44.72H351.536V46.52H349.016V47.12H349.976V47.72H346.616V48.92H352.376V50.72H348.896V51.32H349.016C349.016 51.72 348.976 52.12 348.896 52.52C348.896 52.92 348.896 53.32 348.896 53.72H348.776C348.696 53.96 348.656 54.32 348.656 54.8V56.12H348.056C347.976 56.28 347.936 56.48 347.936 56.72C347.936 56.96 347.936 57.16 347.936 57.32H349.136L348.776 59.72H347.696C347.616 60.12 347.536 60.52 347.456 60.92C347.456 61.32 347.376 61.72 347.216 62.12H348.536C348.536 62.2 348.496 62.28 348.416 62.36C348.416 62.44 348.416 62.56 348.416 62.72H350.216C350.216 62.8 350.176 62.88 350.096 62.96C350.096 63.04 350.096 63.16 350.096 63.32H347.936C347.856 63.64 347.776 63.96 347.696 64.28C347.616 64.52 347.536 64.8 347.456 65.12H347.096L346.376 66.92H345.056C344.976 67.24 344.856 67.56 344.696 67.88C344.536 68.12 344.376 68.4 344.216 68.72H345.296C345.136 69.12 344.936 69.52 344.696 69.92H343.976C343.896 70.24 343.736 70.56 343.496 70.88C343.336 71.12 343.176 71.4 343.016 71.72H346.736L345.896 72.92H341.456L340.136 74.72H341.456L339.776 76.52H341.096C341.016 76.6 340.896 76.68 340.736 76.76C340.656 76.84 340.576 76.96 340.496 77.12H341.936C341.696 77.28 341.456 77.48 341.216 77.72C341.056 77.96 340.856 78.16 340.616 78.32H338.336C338.096 78.48 337.856 78.68 337.616 78.92C337.376 79.16 337.096 79.36 336.776 79.52H337.616C337.376 79.68 337.096 79.88 336.776 80.12C336.536 80.36 336.256 80.56 335.936 80.72H335.696C334.976 81.12 334.256 81.52 333.536 81.92C332.816 82.32 332.056 82.72 331.256 83.12H330.896C330.656 83.2 330.416 83.28 330.176 83.36C329.936 83.44 329.696 83.56 329.456 83.72C328.896 83.96 328.336 84.2 327.776 84.44C327.296 84.6 326.736 84.76 326.096 84.92H325.976C323.336 85.72 320.456 86.32 317.336 86.72H317.456C316.176 86.88 314.816 87 313.376 87.08C312.016 87.16 310.656 87.2 309.296 87.2C307.856 87.2 306.456 87.16 305.096 87.08C303.736 87 302.376 86.88 301.016 86.72C297.976 86.4 295.056 85.8 292.256 84.92H292.376C291.816 84.76 291.256 84.6 290.696 84.44C290.136 84.2 289.576 83.96 289.016 83.72H288.896C288.656 83.56 288.416 83.44 288.176 83.36C287.936 83.28 287.696 83.2 287.456 83.12H287.816C287.016 82.72 286.256 82.32 285.536 81.92C284.816 81.52 284.096 81.12 283.376 80.72H283.616L281.816 79.52H281.096C280.776 79.36 280.496 79.16 280.256 78.92C280.016 78.68 279.776 78.48 279.536 78.32H281.816L280.376 77.12H278.936C278.856 76.96 278.776 76.84 278.696 76.76C278.616 76.68 278.496 76.6 278.336 76.52H277.136C276.816 76.2 276.496 75.92 276.176 75.68C275.936 75.36 275.696 75.04 275.456 74.72H274.136L272.696 72.92H277.136L276.416 71.72H272.576C272.416 71.4 272.256 71.12 272.096 70.88C271.936 70.56 271.776 70.24 271.616 69.92H272.336C272.096 69.52 271.896 69.12 271.736 68.72H270.656C270.496 68.4 270.336 68.12 270.176 67.88C270.096 67.56 269.976 67.24 269.816 66.92H271.256L270.536 65.12H270.896C270.816 64.8 270.736 64.52 270.656 64.28C270.576 63.96 270.496 63.64 270.416 63.32H271.736C271.656 63.16 271.616 62.96 271.616 62.72H270.416C270.416 62.56 270.376 62.44 270.296 62.36C270.296 62.28 270.296 62.2 270.296 62.12H270.056C269.976 61.72 269.896 61.32 269.816 60.92C269.736 60.52 269.656 60.12 269.576 59.72H270.176C270.096 59.32 270.016 58.92 269.936 58.52C269.936 58.12 269.936 57.72 269.936 57.32H269.216L269.096 56.12H269.936V54.8C269.936 54.64 269.896 54.48 269.816 54.32C269.816 54.08 269.816 53.88 269.816 53.72H268.256C268.176 53.32 268.136 52.92 268.136 52.52C268.136 52.12 268.136 51.72 268.136 51.32H268.976V50.72H268.616V48.92H271.016V47.72H266.816V47.12H269.096V46.52H268.976V44.72H268.376V42.32H269.096V39.92H268.256V38.12H263.816V35.72H268.976C269.056 35.56 269.096 35.36 269.096 35.12H271.016V34.52H269.576V33.32H269.696L269.936 30.92H269.696C269.696 30.6 269.696 30.32 269.696 30.08C269.776 29.76 269.856 29.44 269.936 29.12H269.576C269.576 28.8 269.576 28.52 269.576 28.28C269.656 27.96 269.736 27.64 269.816 27.32H269.576C269.656 27 269.736 26.72 269.816 26.48C269.896 26.16 269.976 25.84 270.056 25.52H266.696C266.696 25.36 266.696 25.24 266.696 25.16C266.776 25.08 266.816 25 266.816 24.92H270.416L270.776 23.72H270.536L270.776 23.12H272.576C272.656 22.96 272.736 22.76 272.816 22.52C272.896 22.28 272.976 22.08 273.056 21.92H271.856C272.096 21.2 272.416 20.4 272.816 19.52H272.456C272.696 19.12 272.896 18.72 273.056 18.32C273.296 17.84 273.536 17.44 273.776 17.12H274.136L274.496 16.52H272.576L272.936 15.92H274.856L275.216 15.32H274.976L276.416 13.52H275.576L277.136 11.72C277.536 11.32 277.936 10.92 278.336 10.52C278.816 10.04 279.296 9.63999 279.776 9.31999H278.576L279.296 8.71999H277.976C278.136 8.56 278.256 8.44 278.336 8.36C278.496 8.28 278.656 8.2 278.816 8.11999H281.816C282.136 7.96 282.456 7.76 282.776 7.51999C283.096 7.28 283.416 7.08 283.736 6.92H284.096C284.896 6.52 285.696 6.12 286.496 5.72C287.296 5.24 288.096 4.84 288.896 4.52H289.256C290.856 3.8 292.616 3.2 294.536 2.72H295.136C297.456 2.08 299.896 1.6 302.456 1.28C305.016 0.959996 307.656 0.799995 310.376 0.799995C316.056 0.799995 321.096 1.44 325.496 2.72H324.776C325.656 2.96 326.536 3.24 327.416 3.56C328.296 3.8 329.136 4.12 329.936 4.52H329.456C330.336 4.84 331.136 5.24 331.856 5.72C332.656 6.12 333.456 6.52 334.256 6.92H333.776L335.576 8.11999H332.576C332.736 8.2 332.856 8.28 332.936 8.36C333.096 8.44 333.256 8.56 333.416 8.71999H334.736C334.896 8.8 335.056 8.88 335.216 8.96C335.376 9.04 335.496 9.16 335.576 9.31999H336.776C337.256 9.63999 337.696 10.04 338.096 10.52C338.576 10.92 339.016 11.32 339.416 11.72H339.536C339.856 12.04 340.136 12.36 340.376 12.68C340.616 12.92 340.856 13.2 341.096 13.52H341.936L343.376 15.32H343.616C343.856 15.56 344.016 15.76 344.096 15.92H342.176L342.536 16.52H344.576L344.936 17.12H344.576C344.816 17.44 345.016 17.84 345.176 18.32C345.416 18.72 345.656 19.12 345.896 19.52H346.256L347.336 21.92H348.536L348.896 23.12H347.096L347.336 23.72H347.576L347.936 24.92H347.576C347.576 25 347.576 25.08 347.576 25.16C347.656 25.24 347.696 25.36 347.696 25.52H342.656C342.816 25.84 342.896 26.16 342.896 26.48C342.976 26.72 343.056 27 343.136 27.32H349.376C349.456 27.64 349.496 27.96 349.496 28.28C349.576 28.52 349.616 28.8 349.616 29.12H347.936C348.016 29.44 348.056 29.76 348.056 30.08C348.136 30.32 348.176 30.6 348.176 30.92H349.736L349.976 33.32H348.416V33.68C348.416 33.76 348.416 33.88 348.416 34.04C348.496 34.2 348.536 34.36 348.536 34.52H351.776V35.12H348.896C348.976 35.28 349.016 35.48 349.016 35.72H351.176C351.256 36.12 351.296 36.52 351.296 36.92C351.296 37.32 351.296 37.72 351.296 38.12H347.696V39.92ZM321.416 42.32H322.496V39.92H316.496V38.12H320.096C320.096 37.72 320.096 37.32 320.096 36.92C320.096 36.52 320.056 36.12 319.976 35.72H317.816C317.816 35.56 317.776 35.44 317.696 35.36C317.696 35.28 317.696 35.2 317.696 35.12H320.576V34.52H317.336C317.336 34.36 317.296 34.24 317.216 34.16C317.216 34.08 317.216 34 317.216 33.92V33.32H318.656C318.656 32.92 318.616 32.52 318.536 32.12C318.536 31.64 318.496 31.24 318.416 30.92H316.856C316.776 30.6 316.696 30.32 316.616 30.08C316.536 29.76 316.416 29.44 316.256 29.12H317.936C317.696 28.48 317.376 27.88 316.976 27.32H310.736C310.336 26.68 309.696 26.08 308.816 25.52H313.856C313.376 25.2 313.016 25 312.776 24.92H313.136C311.936 24.44 310.616 24.2 309.176 24.2C307.736 24.2 306.416 24.44 305.216 24.92H301.736C301.416 25 301.016 25.2 300.536 25.52H303.896C303.256 25.92 302.616 26.52 301.976 27.32H302.216C301.816 27.88 301.496 28.48 301.256 29.12H301.616C301.536 29.44 301.456 29.76 301.376 30.08C301.296 30.32 301.176 30.6 301.016 30.92H301.256C301.176 31.24 301.096 31.64 301.016 32.12C301.016 32.52 301.016 32.92 301.016 33.32H300.776V34.52H302.216V35.12H300.296V35.72H295.016V38.12H299.456V39.92H300.296V42.32H299.576V44.72H300.176V46.52H300.296C300.296 46.76 300.336 46.96 300.416 47.12H298.016V47.72H302.216V48.92H299.816V50.72H300.176V51.32H299.336C299.336 51.72 299.336 52.12 299.336 52.52C299.416 52.92 299.456 53.32 299.456 53.72H301.136V54.08C301.136 54.4 301.136 54.76 301.136 55.16C301.136 55.48 301.176 55.8 301.256 56.12H300.416C300.496 56.28 300.536 56.48 300.536 56.72C300.536 56.96 300.576 57.16 300.656 57.32H301.376C301.456 57.72 301.576 58.12 301.736 58.52C301.896 58.92 302.056 59.32 302.216 59.72H301.616C302.096 60.6 302.736 61.4 303.536 62.12H303.776C303.936 62.2 304.096 62.32 304.256 62.48C304.416 62.56 304.576 62.64 304.736 62.72H305.816C306.056 62.8 306.296 62.92 306.536 63.08C306.776 63.16 307.016 63.24 307.256 63.32H305.816C306.776 63.64 307.896 63.8 309.176 63.8C310.456 63.8 311.576 63.64 312.536 63.32H314.576C314.816 63.24 315.056 63.16 315.296 63.08C315.536 62.92 315.776 62.8 316.016 62.72H314.096C314.256 62.64 314.416 62.56 314.576 62.48C314.736 62.32 314.896 62.2 315.056 62.12H313.736C314.456 61.56 315.096 60.76 315.656 59.72H316.736C317.136 58.84 317.456 58.04 317.696 57.32H316.496C316.576 57.16 316.616 56.96 316.616 56.72C316.616 56.48 316.656 56.28 316.736 56.12H317.336C317.416 55.8 317.456 55.48 317.456 55.16C317.456 54.76 317.456 54.4 317.456 54.08V53.72H317.696C317.696 53.32 317.696 52.92 317.696 52.52C317.696 52.12 317.736 51.72 317.816 51.32H317.696V50.72H321.176V48.92H315.416V47.72H318.776V47.12H317.816V46.52H320.336V44.72H321.416V42.32ZM436.759 38.12H430.879C430.799 38.44 430.719 38.76 430.639 39.08C430.559 39.32 430.439 39.6 430.279 39.92H433.639L433.279 41.12H430.399C430.159 41.84 429.839 42.64 429.439 43.52H427.639C427.319 44.32 426.879 45.12 426.319 45.92H426.559C426.239 46.32 425.959 46.72 425.719 47.12C425.479 47.52 425.199 47.92 424.879 48.32H437.839L436.279 50.12H425.599C425.279 50.52 424.879 50.92 424.399 51.32C423.919 51.72 423.479 52.12 423.079 52.52H424.639C424.319 52.84 423.919 53.16 423.439 53.48C423.039 53.72 422.639 54 422.239 54.32H426.199L425.719 54.68L426.799 56.72H423.919L425.239 59.12H425.599L425.959 59.72H425.839L427.039 62.12H428.239L428.959 63.32H419.719L420.679 65.12H429.079L429.799 66.32H427.159L428.119 68.12H439.999L441.319 70.52H433.399L434.359 72.32H430.639L432.559 75.92H433.399L434.119 77.12H433.759L434.119 77.72H428.479L429.799 80.12L430.039 80.72H426.319L426.919 82.04C427.159 82.36 427.279 82.72 427.279 83.12H429.799V83.36C429.799 84.24 429.439 84.96 428.719 85.52H431.959C431.559 85.84 431.039 86 430.399 86H405.799C405.319 86 404.879 85.96 404.479 85.88C404.159 85.72 403.799 85.6 403.399 85.52H400.159C399.519 85.2 398.959 84.8 398.479 84.32C398.079 83.84 397.759 83.44 397.519 83.12H395.119L394.879 82.76L394.039 80.72H397.879L397.519 80.12H386.119V80.72H379.999V83.12H389.719C389.559 84.24 389.039 85.04 388.159 85.52H387.319C386.759 85.84 386.159 86 385.519 86H361.999C361.279 86 360.719 85.84 360.319 85.52H361.279C360.399 85.04 359.879 84.24 359.719 83.12H350.119C350.119 83.04 350.119 83 350.119 83C350.039 82.92 349.999 82.84 349.999 82.76V80.72H356.119V80.12H368.119V77.72H355.279V77.12H362.839V75.92H360.319V74.12H364.519V72.32H357.679V70.52H366.919V68.12H361.639V66.32H361.519V65.72H360.799V65.12H357.559V63.32H361.639V62.12H360.559V59.72H360.679V59.12H360.319V56.72H363.199V54.32H359.119V52.52H357.559V50.12H368.119V48.32H355.159V45.92H354.919V43.52H356.719V41.12H359.479V39.92H356.119V38.12H361.999V36.92H370.639V35.72H358.759V35.12H359.359V34.52H360.439V33.92H360.559V32.72H360.319V30.92H360.799V28.52H360.199V27.32H360.799V25.52H360.319V24.92H360.679V23.72H360.559V23.12H360.079V22.52H361.159V20.72H362.119V18.92H356.479V16.52H357.799V14.12H357.079V12.32H360.319V10.52H361.519V8.71999H359.359V7.51999H360.199V6.92H360.439V5.12H360.679C360.679 4.23999 361.039 3.43999 361.759 2.72H368.239C368.719 2.24 369.399 1.99999 370.279 1.99999H405.799C409.239 1.99999 412.439 2.24 415.399 2.72H409.039C412.239 3.2 415.279 4 418.159 5.12H417.919C419.279 5.6 420.599 6.2 421.879 6.92H421.639L422.719 7.51999H421.759C422.159 7.68 422.479 7.88 422.719 8.11999C423.039 8.36 423.359 8.56 423.679 8.71999H425.839C426.239 9.03999 426.639 9.35999 427.039 9.68C427.439 9.92 427.799 10.2 428.119 10.52H426.919C427.319 10.84 427.639 11.16 427.879 11.48C428.199 11.72 428.519 12 428.839 12.32H425.599C425.919 12.64 426.199 12.96 426.439 13.28C426.679 13.52 426.919 13.8 427.159 14.12H427.759C428.399 14.92 428.959 15.72 429.439 16.52H428.239C428.479 16.84 428.679 17.24 428.839 17.72C429.079 18.12 429.319 18.52 429.559 18.92H435.199L435.919 20.72H434.959C435.039 21.04 435.119 21.36 435.199 21.68C435.359 21.92 435.479 22.2 435.559 22.52H434.359L434.599 23.12H435.079C435.159 23.28 435.199 23.48 435.199 23.72L435.559 24.92H435.919C435.919 25.16 435.959 25.36 436.039 25.52H436.159C436.239 25.84 436.279 26.16 436.279 26.48C436.359 26.72 436.399 27 436.399 27.32H434.839C434.839 27.48 434.839 27.68 434.839 27.92C434.839 28.16 434.879 28.36 434.959 28.52H435.679C435.679 28.92 435.679 29.32 435.679 29.72C435.759 30.12 435.799 30.52 435.799 30.92V32.12H436.519V32.72H435.799V33.92H434.599C434.599 34 434.559 34.08 434.479 34.16C434.479 34.24 434.479 34.36 434.479 34.52H435.679C435.679 34.6 435.639 34.68 435.559 34.76C435.559 34.84 435.559 34.96 435.559 35.12H441.199C441.119 35.28 441.079 35.48 441.079 35.72H442.639L442.519 36.92H436.999C436.839 37.4 436.759 37.8 436.759 38.12ZM388.759 35.72H400.639V36.92H391.999V37.04H400.759C401.319 37.04 401.759 37 402.079 36.92H407.599C408.479 36.68 409.279 36.28 409.999 35.72H408.319L408.919 35.12H403.279C403.519 34.88 403.679 34.68 403.759 34.52H402.559L402.919 33.92H404.119L404.479 32.72H405.079C405.159 32.56 405.199 32.36 405.199 32.12H404.479L404.599 30.92C404.599 30.12 404.479 29.32 404.239 28.52H403.519C403.439 28.36 403.359 28.16 403.279 27.92C403.279 27.68 403.199 27.48 403.039 27.32H404.719C404.399 26.68 403.959 26.08 403.399 25.52H403.159C402.919 25.28 402.639 25.08 402.319 24.92H401.959C401.159 24.52 400.319 24.32 399.439 24.32H390.679V24.92H390.319V25.52H390.799V27.32H390.199V28.52H390.799V30.92H390.319V32.72H390.559V33.92H390.439V34.52H389.359V35.12H388.759V35.72ZM398.239 63.32L397.759 62.12H396.439L395.479 59.84H390.559V62.12H391.639V63.32H398.239ZM387.559 63.32V65.12H389.839L389.119 63.32H387.559ZM398.479 65.72L398.239 65.12H390.799V65.72H391.519V66.32H391.639V68.12H396.919V70.52H387.679V72.32H394.519V74.12H390.319V75.92H392.839V77.12H385.279V77.72H402.199L401.839 77.12H402.199L401.599 75.92H400.639L399.919 74.12L399.079 72.32H402.919L402.079 70.52H409.879L408.799 68.12H396.919L396.199 66.32H398.839L398.479 65.72ZM547.426 68.12H577.306V69.32C577.306 69.64 577.226 70.04 577.066 70.52H557.386C557.386 70.6 557.306 70.8 557.146 71.12H545.026C544.946 71.28 544.786 71.48 544.546 71.72H537.466C536.746 72.28 536.026 72.56 535.306 72.56H524.746V73.52H546.826V74.12H536.866V74.72H535.186V75.92H533.626V78.32H531.346V78.92H529.066V80.72H516.346V81.32H511.906V82.76C511.906 82.92 511.866 83.04 511.786 83.12H518.626L518.266 84.32H526.066C525.986 84.48 525.826 84.68 525.586 84.92H514.906C514.586 85.24 514.346 85.44 514.186 85.52H521.626C521.226 85.84 520.626 86 519.826 86H497.506C496.786 86 496.226 85.84 495.826 85.52H488.506C488.186 85.44 487.946 85.24 487.786 84.92H498.466L498.106 84.32H490.186L489.826 83.12H483.106V81.32H487.546V80.72H500.266V78.92H502.546V78.32H504.826V75.92H506.386V74.72H508.066V74.12H518.026V73.52H495.946V72.56H460.066C459.186 72.56 458.466 72.28 457.906 71.72H464.866C464.626 71.48 464.466 71.28 464.386 71.12H476.506L476.146 70.52H495.826C495.666 70.04 495.586 69.64 495.586 69.32V68.12H465.706V65.72H480.586V63.92H485.626V63.32H462.226V62.72H480.586V62.12H468.826V59.72H469.786V59.12H472.666V57.32H465.466V54.92H467.746V52.52H468.226V52.16C468.226 51.68 468.306 51.2 468.466 50.72H465.226C465.306 50.48 465.386 50.28 465.466 50.12C465.546 49.88 465.626 49.68 465.706 49.52C465.946 49.04 466.186 48.68 466.426 48.44L467.026 47.72H465.586L467.506 45.32H474.826L476.626 42.92H457.546L459.466 40.52H465.346L466.666 38.72H458.506L460.306 36.32H466.306L468.226 33.92H483.946L484.426 33.32H469.186L469.666 32.72H476.506L478.306 30.32H466.306L466.786 29.72H474.706L475.666 28.52H482.266L482.746 27.92H483.586L484.426 26.72H486.826L488.146 24.92H482.506L484.306 22.52H500.506L501.346 21.32H478.306L479.626 19.52H505.786L507.706 17.12H495.586L497.026 15.32H491.146L491.626 14.72H504.346L504.826 14.12H488.266L489.706 12.32H493.546L494.986 10.52H503.026L503.986 9.31999H502.306L503.626 7.51999H504.226L504.706 6.92H501.946L503.266 5.12H500.146L500.626 4.52H500.026L500.506 4.04C500.906 3.47999 501.426 3.04 502.066 2.72H500.626C501.506 2.24 502.466 1.99999 503.506 1.99999H528.466C529.266 1.99999 529.946 2.24 530.506 2.72H531.946C532.186 2.96 532.386 3.24 532.546 3.56C532.786 3.8 532.946 4.12 533.026 4.52H533.506C533.506 4.6 533.506 4.68 533.506 4.75999C533.586 4.83999 533.626 4.95999 533.626 5.12H536.746V6.92H539.626V7.51999H538.906V9.31999H540.706V10.52H532.546V12.32H528.586V14.12H545.146V14.72H532.426V15.32H538.186V17.12H550.306V19.52H524.146V21.32H547.186V22.52H531.106V24.92H536.746V26.72H534.466V27.92H533.626V28.52H527.026V29.72H518.986V30.32H531.106V32.72H518.746V33.32H529.306V33.92H529.186V36.32H518.626V38.72H525.946V40.52H539.266V42.92H525.946V45.32H533.866V47.72H533.626V48.2H544.066C545.266 48.2 546.186 48.64 546.826 49.52H546.226C546.546 50 546.706 50.4 546.706 50.72H549.946V52.52H549.466V54.92H547.186V57.32H554.386V59.12H551.506V59.72H550.546V62.12H562.306V62.72H543.946V63.32H567.346V63.92H562.306V65.72H547.426V68.12ZM501.226 33.92H494.506L492.706 36.32H501.226V33.92ZM486.706 36.32L485.026 38.72H490.666V36.32H486.706ZM485.986 40.52L484.186 42.92H511.306V40.52H497.986V38.72H493.186L491.866 40.52H485.986ZM494.146 45.32L492.466 47.72H493.786L492.466 49.52H505.666V47.72H505.906V45.32H494.146ZM639.268 31.52V32.72H626.188C626.188 32.8 626.188 32.88 626.188 32.96C626.268 33.04 626.308 33.16 626.308 33.32H634.708V33.92H631.588C631.668 34.24 631.708 34.64 631.708 35.12C631.708 35.52 631.708 35.92 631.708 36.32H631.348V38.12H625.948V39.92H630.868V41.72H632.188V43.52H631.828V45.32H627.628V47.72H633.988V50.12H627.868L627.748 51.32H630.268C630.268 51.64 630.268 51.96 630.268 52.28C630.268 52.52 630.228 52.8 630.148 53.12H631.708C631.628 53.28 631.588 53.48 631.588 53.72C631.588 53.96 631.588 54.16 631.588 54.32H633.988V56.12H637.108V56.48C637.028 56.8 636.988 57.12 636.988 57.44C636.988 57.76 636.948 58.12 636.868 58.52H636.508L636.388 59.72H629.548C629.468 60.12 629.388 60.52 629.308 60.92C629.308 61.32 629.228 61.72 629.068 62.12H633.388L633.028 63.92H630.148L629.428 66.32H627.508L626.788 68.12H624.388C624.228 68.52 624.028 68.92 623.788 69.32C623.628 69.72 623.428 70.12 623.188 70.52H619.948C619.708 70.92 619.468 71.32 619.228 71.72C618.988 72.12 618.748 72.52 618.508 72.92H624.628C624.308 73.32 623.988 73.72 623.668 74.12C623.428 74.52 623.148 74.92 622.828 75.32H624.028L623.428 75.92H625.828L624.748 77.12H620.548L619.348 78.32H617.428C616.388 79.2 615.348 80 614.308 80.72H606.268L603.268 82.52H613.708C612.348 83.24 610.988 83.84 609.628 84.32H613.228C612.188 84.64 611.148 84.96 610.108 85.28C609.068 85.6 607.988 85.88 606.868 86.12H607.108C606.548 86.2 605.948 86.28 605.308 86.36C604.748 86.52 604.148 86.64 603.508 86.72H615.748C614.628 86.88 613.428 87 612.148 87.08C610.948 87.16 609.668 87.2 608.308 87.2C607.028 87.2 605.748 87.16 604.468 87.08C603.268 87 602.108 86.88 600.988 86.72H588.628C588.068 86.64 587.468 86.52 586.828 86.36C586.268 86.28 585.668 86.2 585.028 86.12H584.908C582.508 85.64 580.388 85.04 578.548 84.32H574.948C573.508 83.84 572.188 83.24 570.988 82.52H560.548C559.988 82.2 559.428 81.92 558.868 81.68C558.388 81.36 557.908 81.04 557.428 80.72H565.468C564.428 80 563.388 79.2 562.348 78.32H564.268L563.068 77.12H567.148L566.068 75.92H563.668C563.428 75.68 563.268 75.48 563.188 75.32H561.988C561.348 74.68 560.748 73.88 560.188 72.92H553.948C553.708 72.52 553.468 72.12 553.228 71.72C552.988 71.32 552.748 70.92 552.508 70.52H555.748C555.588 70.12 555.388 69.72 555.148 69.32C554.908 68.92 554.708 68.52 554.548 68.12H557.068C556.748 67.48 556.508 66.88 556.348 66.32H558.148L557.428 63.92H560.188C560.108 63.6 560.028 63.32 559.948 63.08C559.868 62.76 559.788 62.44 559.708 62.12H560.908C560.828 61.72 560.748 61.32 560.668 60.92C560.668 60.52 560.588 60.12 560.428 59.72H555.748L555.628 58.52H553.948L553.708 56.48V56.12H560.908C560.828 55.8 560.788 55.52 560.788 55.28C560.788 54.96 560.788 54.64 560.788 54.32H555.748L555.628 53.12H556.108C556.028 52.8 555.988 52.52 555.988 52.28C555.988 51.96 555.988 51.64 555.988 51.32H554.668L554.548 50.12H554.428C554.428 49.72 554.388 49.32 554.308 48.92C554.308 48.52 554.308 48.12 554.308 47.72H553.828C553.828 47.32 553.788 46.92 553.708 46.52C553.708 46.12 553.708 45.72 553.708 45.32H554.428V43.52H556.468V41.72H555.148V39.92H554.788V38.12H549.868C549.948 37.8 549.988 37.52 549.988 37.28C549.988 36.96 549.988 36.64 549.988 36.32H557.068V33.92H558.028C558.108 33.76 558.148 33.56 558.148 33.32H567.148V32.72H559.828L559.948 31.52H557.188L557.308 31.04C557.308 30.48 557.348 30.04 557.428 29.72H555.988C556.068 29.4 556.108 29.12 556.108 28.88C556.108 28.56 556.148 28.24 556.228 27.92H556.588C556.668 27.76 556.708 27.56 556.708 27.32C556.708 27.08 556.748 26.88 556.828 26.72H558.388C558.468 26.4 558.548 26.12 558.628 25.88C558.708 25.56 558.788 25.24 558.868 24.92H551.548C551.708 24.6 551.828 24.32 551.908 24.08C551.988 23.76 552.068 23.44 552.148 23.12H553.948L554.668 21.32H541.588L542.668 18.92H549.148L549.388 18.32H555.028C555.348 17.52 555.788 16.72 556.348 15.92H553.108L553.468 15.32H557.908C558.228 14.92 558.508 14.52 558.748 14.12C559.068 13.64 559.388 13.24 559.708 12.92H563.308C563.468 12.76 563.628 12.56 563.788 12.32C564.028 12.08 564.228 11.88 564.388 11.72H564.748C564.988 11.56 565.188 11.36 565.348 11.12C565.588 10.88 565.788 10.68 565.948 10.52H565.468L567.628 8.71999H567.868L570.388 6.92H570.508L572.668 5.72C572.828 5.56 572.988 5.44 573.148 5.35999C573.388 5.27999 573.628 5.2 573.868 5.12H571.468C571.628 4.95999 571.828 4.83999 572.068 4.75999C572.308 4.68 572.508 4.6 572.668 4.52H573.868C574.348 4.28 574.828 4.08 575.308 3.92C575.868 3.68 576.388 3.48 576.868 3.32H577.828C578.148 3.16 578.428 3.04 578.668 2.96C578.988 2.88 579.308 2.8 579.628 2.72H579.388C579.788 2.56 580.148 2.44 580.468 2.36C580.868 2.28 581.268 2.2 581.668 2.11999H581.908C583.748 1.71999 585.628 1.39999 587.548 1.16C589.548 0.919996 591.628 0.799995 593.788 0.799995C597.868 0.799995 601.788 1.23999 605.548 2.11999H605.308C605.708 2.2 606.108 2.28 606.508 2.36C606.908 2.44 607.268 2.56 607.588 2.72H607.948C608.268 2.8 608.548 2.88 608.788 2.96C609.108 3.04 609.428 3.16 609.748 3.32H608.908C609.468 3.48 609.988 3.68 610.468 3.92C611.028 4.08 611.548 4.28 612.028 4.52H610.828L612.148 5.12H614.548C614.708 5.2 614.868 5.27999 615.028 5.35999C615.268 5.44 615.508 5.56 615.748 5.72H615.628L617.788 6.92H617.548C618.028 7.24 618.468 7.56 618.868 7.88C619.348 8.12 619.788 8.4 620.188 8.71999H619.948C620.348 9.03999 620.708 9.35999 621.028 9.68C621.348 9.92 621.668 10.2 621.988 10.52H622.468C622.708 10.68 622.908 10.88 623.068 11.12C623.308 11.36 623.508 11.56 623.668 11.72H623.308L624.388 12.92H620.908C621.228 13.24 621.508 13.64 621.748 14.12C622.068 14.52 622.388 14.92 622.708 15.32H618.268L618.628 15.92H621.988C622.228 16.24 622.468 16.64 622.708 17.12C622.948 17.52 623.188 17.92 623.428 18.32H617.788L618.148 18.92H611.668L612.748 21.32H625.708L626.428 23.12H624.508C624.588 23.44 624.668 23.76 624.748 24.08C624.828 24.32 624.908 24.6 624.988 24.92H624.028L624.388 26.72H630.028C630.188 27.2 630.268 27.6 630.268 27.92H631.108C631.188 28.24 631.228 28.56 631.228 28.88C631.308 29.12 631.348 29.4 631.348 29.72H632.188C632.268 30.04 632.308 30.48 632.308 31.04C632.308 31.28 632.348 31.44 632.428 31.52H639.268ZM588.268 23.96C586.988 23.96 585.828 24.28 584.788 24.92H591.748C590.868 24.28 589.708 23.96 588.268 23.96ZM608.068 32.72C608.068 32.32 608.028 32 607.948 31.76V31.52H601.108C601.108 31.2 601.068 30.92 600.988 30.68C600.988 30.36 600.948 30.04 600.868 29.72H600.028C599.948 29.4 599.868 29.12 599.788 28.88C599.788 28.56 599.708 28.24 599.548 27.92H598.708C598.628 27.6 598.428 27.2 598.108 26.72H592.468C592.308 26.48 592.148 26.24 591.988 26C591.828 25.76 591.628 25.56 591.388 25.4C590.988 25.8 590.668 26.24 590.428 26.72H588.748C588.668 26.88 588.588 27.08 588.508 27.32C588.428 27.48 588.308 27.68 588.148 27.92H587.788C587.708 28.24 587.628 28.56 587.548 28.88C587.468 29.12 587.388 29.4 587.308 29.72H588.748C588.668 30.04 588.588 30.36 588.508 30.68C588.508 30.92 588.508 31.2 588.508 31.52H591.148V32.72H608.068ZM603.508 33.92C603.508 33.68 603.468 33.48 603.388 33.32H589.348V33.92H588.388C588.388 34.24 588.348 34.64 588.268 35.12C588.268 35.52 588.268 35.92 588.268 36.32H581.188V38.12H586.108C586.108 38.44 586.068 38.76 585.988 39.08C585.988 39.32 585.988 39.6 585.988 39.92H586.468V41.72H587.788V43.52H585.748V45.32H585.028V47.72H585.628V50.12H585.868V51.32H587.308V53.12H586.948V54.32H591.988C592.068 54.56 592.108 54.84 592.108 55.16C592.108 55.4 592.108 55.64 592.108 55.88V56.12H584.908L585.268 58.52H586.948L587.308 59.72H591.988C592.388 60.76 592.908 61.56 593.548 62.12H592.348C593.388 63.16 594.788 63.68 596.548 63.68C598.388 63.68 599.828 63.16 600.868 62.12H596.548C597.108 61.56 597.588 60.76 597.988 59.72H604.828L605.188 58.52H605.548L605.908 56.12H602.668V55.88C602.748 55.64 602.788 55.4 602.788 55.16C602.788 54.84 602.788 54.56 602.788 54.32H600.388V53.12H598.948V51.32H596.548V50.12H602.668V47.72H596.308V45.32H600.508V43.52H600.868V41.72H599.668V39.92H594.628V38.12H600.028V36.32H600.388V33.92H603.508ZM721.801 68.12H751.681V69.32C751.681 69.64 751.601 70.04 751.441 70.52H731.761C731.761 70.6 731.681 70.8 731.521 71.12H719.401C719.321 71.28 719.161 71.48 718.921 71.72H711.841C711.121 72.28 710.401 72.56 709.681 72.56H699.121V73.52H721.201V74.12H711.241V74.72H709.561V75.92H708.001V78.32H705.721V78.92H703.441V80.72H690.721V81.32H686.281V82.76C686.281 82.92 686.241 83.04 686.161 83.12H693.001L692.641 84.32H700.441C700.361 84.48 700.201 84.68 699.961 84.92H689.281C688.961 85.24 688.721 85.44 688.561 85.52H696.001C695.601 85.84 695.001 86 694.201 86H671.881C671.161 86 670.601 85.84 670.201 85.52H662.881C662.561 85.44 662.321 85.24 662.161 84.92H672.841L672.481 84.32H664.561L664.201 83.12H657.481V81.32H661.921V80.72H674.641V78.92H676.921V78.32H679.201V75.92H680.761V74.72H682.441V74.12H692.401V73.52H670.321V72.56H634.441C633.561 72.56 632.841 72.28 632.281 71.72H639.241C639.001 71.48 638.841 71.28 638.761 71.12H650.881L650.521 70.52H670.201C670.041 70.04 669.961 69.64 669.961 69.32V68.12H640.081V65.72H654.961V63.92H660.001V63.32H636.601V62.72H654.961V62.12H643.201V59.72H644.161V59.12H647.041V57.32H639.841V54.92H642.121V52.52H642.601V52.16C642.601 51.68 642.681 51.2 642.841 50.72H639.601C639.681 50.48 639.761 50.28 639.841 50.12C639.921 49.88 640.001 49.68 640.081 49.52C640.321 49.04 640.561 48.68 640.801 48.44L641.401 47.72H639.961L641.881 45.32H649.201L651.001 42.92H631.921L633.841 40.52H639.721L641.041 38.72H632.881L634.681 36.32H640.681L642.601 33.92H658.321L658.801 33.32H643.561L644.041 32.72H650.881L652.681 30.32H640.681L641.161 29.72H649.081L650.041 28.52H656.641L657.121 27.92H657.961L658.801 26.72H661.201L662.521 24.92H656.881L658.681 22.52H674.881L675.721 21.32H652.681L654.001 19.52H680.161L682.081 17.12H669.961L671.401 15.32H665.521L666.001 14.72H678.721L679.201 14.12H662.641L664.081 12.32H667.921L669.361 10.52H677.401L678.361 9.31999H676.681L678.001 7.51999H678.601L679.081 6.92H676.321L677.641 5.12H674.521L675.001 4.52H674.401L674.881 4.04C675.281 3.47999 675.801 3.04 676.441 2.72H675.001C675.881 2.24 676.841 1.99999 677.881 1.99999H702.841C703.641 1.99999 704.321 2.24 704.881 2.72H706.321C706.561 2.96 706.761 3.24 706.921 3.56C707.161 3.8 707.321 4.12 707.401 4.52H707.881C707.881 4.6 707.881 4.68 707.881 4.75999C707.961 4.83999 708.001 4.95999 708.001 5.12H711.121V6.92H714.001V7.51999H713.281V9.31999H715.081V10.52H706.921V12.32H702.961V14.12H719.521V14.72H706.801V15.32H712.561V17.12H724.681V19.52H698.521V21.32H721.561V22.52H705.481V24.92H711.121V26.72H708.841V27.92H708.001V28.52H701.401V29.72H693.361V30.32H705.481V32.72H693.121V33.32H703.681V33.92H703.561V36.32H693.001V38.72H700.321V40.52H713.641V42.92H700.321V45.32H708.241V47.72H708.001V48.2H718.441C719.641 48.2 720.561 48.64 721.201 49.52H720.601C720.921 50 721.081 50.4 721.081 50.72H724.321V52.52H723.841V54.92H721.561V57.32H728.761V59.12H725.881V59.72H724.921V62.12H736.681V62.72H718.321V63.32H741.721V63.92H736.681V65.72H721.801V68.12ZM675.601 33.92H668.881L667.081 36.32H675.601V33.92ZM661.081 36.32L659.401 38.72H665.041V36.32H661.081ZM660.361 40.52L658.561 42.92H685.681V40.52H672.361V38.72H667.561L666.241 40.52H660.361ZM668.521 45.32L666.841 47.72H668.161L666.841 49.52H680.041V47.72H680.281V45.32H668.521Z" fill="white"/></svg>