<svg width="24" height="20" fill="none" xmlns="http://www.w3.org/2000/svg"><path fill-rule="evenodd" clip-rule="evenodd" d="M5.47952 0.0107301C3.66219 0.238815 2.17976 0.735954 1.23002 1.43575C0.838314 1.72437 0.360472 2.26941 0.21115 2.59783C-0.261099 3.63659 0.120889 4.64927 1.28535 5.44599C1.83236 5.82022 2.13326 5.979 2.7458 6.21656C3.80524 6.62748 4.83926 6.80532 6.39365 6.8439C8.06127 6.88532 9.04373 6.751 10.3224 6.30691C11.0496 6.05437 11.5988 5.77196 12.1826 5.35049C12.6664 5.00123 12.9524 4.67195 13.1673 4.21664C13.2869 3.96338 13.3033 3.87003 13.3035 3.44449C13.3037 2.99336 13.2921 2.93634 13.1332 2.60726C12.7337 1.77987 11.7129 1.02142 10.3913 0.569986C9.17496 0.15448 8.36781 0.0274443 6.804 0.00543072C6.16997 -0.00353776 5.57395 -0.00114296 5.47952 0.0107301ZM18.6752 0.48713C18.5268 0.540176 17.3614 0.926381 16.0855 1.3453C14.8095 1.76422 13.7517 2.12143 13.7346 2.13911C13.7176 2.1568 13.7572 2.3487 13.8225 2.56552C13.9952 3.13803 13.9907 3.95019 13.8125 4.38816L13.6877 4.69488L13.8092 5.05061C13.9705 5.52268 13.9918 6.4476 13.8498 6.80767C13.7025 7.18103 13.7008 7.32605 13.8386 7.7408C14.2336 8.92958 13.6777 10.2932 12.4505 11.1459C11.4311 11.8542 9.84818 12.4252 8.38297 12.6133C6.82367 12.8135 4.78304 12.6806 3.38381 12.2879C2.56582 12.0583 1.65218 11.6662 1.17498 11.34C1.08731 11.28 1.01555 11.2531 1.01555 11.2803C1.01555 11.4941 3.29173 18.8447 3.47961 19.2377C3.61137 19.5133 3.9756 19.8157 4.31894 19.9346C4.715 20.0718 5.0368 20.0141 6.41156 19.5592C8.21653 18.9618 16.0761 16.3829 17.2036 16.0179C20.2995 15.016 23.0925 14.0704 23.2674 13.9651C23.5054 13.8218 23.7334 13.5639 23.8864 13.2651C24.0643 12.9176 24.0346 12.4004 23.7876 11.5467C23.3447 10.0161 21.8564 5.17158 20.9709 2.37851C20.5836 1.15666 20.5721 1.1297 20.3364 0.8848C20.0307 0.567285 19.76 0.443663 19.3053 0.414057C19.0335 0.396375 18.8788 0.414312 18.6752 0.48713ZM18.9549 2.58316C19.0718 2.64196 19.1916 2.73694 19.2211 2.79422C19.2911 2.93012 20.1065 5.50815 20.2208 5.955C20.2929 6.23674 20.2988 6.33468 20.2533 6.49005C20.1403 6.87513 20.0468 6.93791 19.0922 7.2697C17.8984 7.68464 16.7427 8.03069 16.5514 8.03044C16.3673 8.03023 16.1109 7.88098 16.0088 7.7146C15.8672 7.48387 15.0182 4.69574 14.9637 4.28258C14.9284 4.01526 15.0533 3.72363 15.2586 3.59394C15.3399 3.54263 15.8824 3.34018 16.4644 3.14414C18.6833 2.3965 18.6145 2.41199 18.9549 2.58316ZM0.0317078 5.67387C-0.0407459 6.03536 0.0172367 6.41366 0.209923 6.83676C0.367291 7.18235 0.895413 7.75975 1.3344 8.06621C2.33811 8.76687 3.83168 9.24913 5.49728 9.41036C6.27686 9.48583 7.74683 9.4472 8.52042 9.33092C11.1983 8.92846 13.1879 7.62471 13.3154 6.18879C13.3449 5.85634 13.2949 5.43182 13.2261 5.43182C13.2002 5.43182 13.0415 5.54311 12.8735 5.67917C11.7771 6.56684 10.3109 7.169 8.54745 7.45594C7.78019 7.58074 5.78709 7.57875 4.96445 7.45227C3.56865 7.23774 2.55214 6.94494 1.74798 6.52592C1.20676 6.24387 0.971497 6.08519 0.492331 5.67891C0.298958 5.51498 0.129474 5.38086 0.11564 5.38086C0.101807 5.38086 0.0640348 5.51274 0.0317078 5.67387ZM12.9604 8.16323C11.9521 9.09748 10.3756 9.75926 8.52091 10.0268C7.78514 10.1329 5.30862 10.1179 4.59654 10.0029C2.93172 9.73409 1.3657 9.0506 0.247058 8.10458L0.0917506 7.97321L0.0336209 8.26418C-0.0112641 8.4887 -0.0112151 8.62613 0.0338171 8.86614C0.270211 10.1259 1.62711 11.1446 3.83619 11.7208C4.64545 11.9319 5.36841 12.0053 6.63677 12.0053C8.283 12.0053 9.04643 11.8996 10.2133 11.51C11.8301 10.9702 12.9472 10.0999 13.2307 9.15909C13.3395 8.79775 13.3557 8.28257 13.2647 8.07248L13.2056 7.93591L12.9604 8.16323ZM16.8033 12.2249C16.8683 12.3061 17.1843 13.2833 17.2294 13.5424C17.2573 13.7024 17.2455 13.7401 17.1469 13.8061C17.0306 13.884 15.4059 14.4342 12.9358 15.2322C9.93408 16.202 6.92104 17.1816 5.9946 17.4888C5.45499 17.6677 4.9849 17.8142 4.94993 17.8143C4.91495 17.8144 4.83435 17.6978 4.77078 17.5553C4.61763 17.2119 4.37874 16.3157 4.41455 16.2189C4.43108 16.1741 4.70461 16.0547 5.07158 15.9322C5.77552 15.6971 9.04903 14.6215 12.3472 13.5417C13.5478 13.1486 14.9826 12.6783 15.5357 12.4965C16.6068 12.1446 16.7199 12.1204 16.8033 12.2249Z" fill="#444455"/></svg>