<svg width="18" height="18" fill="none" xmlns="http://www.w3.org/2000/svg"><circle cx="9" cy="9" r="8.5" stroke="#3C3C52"/><path fill="#3C3C52" d="M9.60074 12.7799C9.60074 12.8644 9.57217 12.9373 9.51502 12.9988C9.45787 13.0603 9.39 13.091 9.31142 13.091H8.70063C8.62205 13.091 8.55419 13.0603 8.49704 12.9988C8.43989 12.9373 8.41131 12.8644 8.41131 12.7799V12.123C8.41131 12.0385 8.43989 11.9655 8.49704 11.9041C8.55419 11.8426 8.62205 11.8119 8.70063 11.8119H9.31142C9.39 11.8119 9.45787 11.8426 9.51502 11.9041C9.57217 11.9655 9.60074 12.0385 9.60074 12.123V12.7799ZM6.54679 7.1563C6.56108 6.90278 6.61823 6.64542 6.71824 6.38421C6.8254 6.11533 6.97899 5.87333 7.17901 5.65822C7.38618 5.43543 7.64336 5.25489 7.95054 5.11661C8.25772 4.97832 8.61491 4.90918 9.0221 4.90918C9.37214 4.90918 9.69361 4.9668 9.98651 5.08203C10.2865 5.18959 10.5437 5.3394 10.758 5.53146C10.9795 5.72352 11.1509 5.95399 11.2724 6.22288C11.3938 6.49177 11.4545 6.77986 11.4545 7.08716C11.4545 7.40214 11.4045 7.67486 11.3045 7.90534C11.2117 8.12813 11.0902 8.32787 10.9402 8.50457C10.7973 8.68127 10.6402 8.84644 10.4687 9.00009C10.3044 9.14606 10.1472 9.2997 9.99722 9.46104C9.85435 9.61469 9.7329 9.78754 9.63289 9.9796C9.54002 10.164 9.49359 10.3868 9.49359 10.648V10.8093C9.49359 10.8938 9.46501 10.9668 9.40786 11.0283C9.35071 11.0897 9.28285 11.1204 9.20427 11.1204H8.80779C8.72921 11.1204 8.66134 11.0897 8.60419 11.0283C8.54704 10.9668 8.51847 10.8938 8.51847 10.8093V10.5673C8.51847 10.26 8.5649 9.99497 8.65777 9.77218C8.75778 9.5417 8.87923 9.33812 9.0221 9.16142C9.17212 8.98472 9.32928 8.82339 9.49359 8.67743C9.66504 8.52378 9.8222 8.37013 9.96507 8.21648C10.1151 8.05515 10.2365 7.88613 10.3294 7.70944C10.4294 7.53274 10.4794 7.32531 10.4794 7.08716C10.4794 6.8951 10.4366 6.72608 10.3508 6.58011C10.2723 6.42647 10.1651 6.2997 10.0294 6.19983C9.89364 6.09996 9.73647 6.02314 9.55788 5.96936C9.38643 5.91558 9.20784 5.88869 9.0221 5.88869C8.65063 5.88869 8.33273 5.98857 8.06841 6.18831C7.80409 6.38805 7.62193 6.71072 7.52191 7.1563C7.50763 7.24081 7.47191 7.30611 7.41476 7.3522C7.35761 7.39061 7.30046 7.40982 7.24331 7.40982H6.78254C6.71824 7.40982 6.66109 7.38677 6.61109 7.34068C6.56108 7.2869 6.53965 7.22544 6.54679 7.1563Z"/></svg>