<svg width="9" height="10" fill="none" xmlns="http://www.w3.org/2000/svg"><path fill-rule="evenodd" clip-rule="evenodd" d="M1.93727 0.0139317C1.89151 0.0341298 1.84942 0.0748936 1.82521 0.122414C1.80641 0.15934 1.80594 0.216567 1.80594 2.42648V4.69268H0.992396C0.103028 4.69268 0.139234 4.69034 0.0750246 4.7519C0.0592451 4.76704 0.0365154 4.7978 0.0245141 4.82025C0.00290575 4.86073 0.0027138 4.86613 0.0027138 5.44821V6.03534L0.0285247 6.08601C0.0441425 6.11668 0.0713879 6.14879 0.0975725 6.16739L0.14082 6.1981L0.970858 6.2032L1.80089 6.2083L1.80352 6.62397L1.80616 7.03965L0.985254 7.04243C0.20617 7.04507 0.162549 7.04619 0.12899 7.06427C0.079318 7.09104 0.0496582 7.12039 0.0244636 7.16769C0.00316839 7.20767 0.00266329 7.21867 0.000370113 7.69842C-0.00110479 8.00773 0.00187533 8.20525 0.008472 8.23425C0.0236959 8.30128 0.0627506 8.35206 0.122009 8.3819L0.173369 8.40775H0.989648H1.80594V9.1226C1.80594 9.81007 1.80669 9.83893 1.82555 9.87628C1.85117 9.92701 1.90689 9.97571 1.95467 9.98911C2.00468 10.0031 3.22104 10.0038 3.27074 9.98988C3.3186 9.97642 3.37765 9.92537 3.40489 9.87391L3.42732 9.83153L3.43017 9.11964L3.43303 8.40775H5.23121C6.83401 8.40775 7.03345 8.40603 7.06693 8.3919C7.11445 8.37185 7.15639 8.33182 7.18145 8.28261C7.20013 8.24589 7.20086 8.22124 7.19819 7.71448L7.19541 7.18474L7.16466 7.14049C7.14773 7.11616 7.11364 7.08477 7.08889 7.07073L7.04388 7.04522L5.23813 7.04253L3.43238 7.03984V6.62153V6.2032L4.74312 6.2031C5.55899 6.20303 6.09964 6.19901 6.17509 6.19244C6.98316 6.12216 7.63948 5.82333 8.16849 5.28483C8.63295 4.81203 8.90946 4.20795 8.9838 3.50365C9.00297 3.32208 9.00571 2.91397 8.98887 2.74838C8.93201 2.1892 8.78344 1.75364 8.50844 1.33992C8.38985 1.16151 8.27886 1.02782 8.11841 0.870114C7.96591 0.720225 7.86301 0.636156 7.68707 0.517702C7.36955 0.303942 6.99889 0.152829 6.58928 0.0701579C6.23955 -0.000428557 6.38911 0.00368456 4.06881 0.000867637C2.20604 -0.00139815 1.96868 6.13444e-05 1.93727 0.0139317ZM5.99831 1.53248C6.39092 1.59881 6.65405 1.72969 6.90245 1.98217C7.03321 2.11508 7.09729 2.20348 7.17301 2.35544C7.27608 2.56227 7.32014 2.75487 7.32862 3.03569C7.33893 3.37643 7.29722 3.59081 7.17006 3.85066C7.09556 4.00292 7.01078 4.11753 6.87544 4.24895C6.6106 4.50614 6.29432 4.64272 5.87203 4.68225C5.80413 4.68861 5.30807 4.69266 4.59664 4.69266L3.43238 4.69268V3.10001V1.50734L4.66231 1.51096C5.77778 1.51422 5.90211 1.51623 5.99831 1.53248Z" fill="white"/></svg>