<svg width="26" height="22" fill="none" xmlns="http://www.w3.org/2000/svg"><path fill-rule="evenodd" clip-rule="evenodd" d="M11.945 0.00847413C10.71 0.133926 9.56674 0.450075 8.42456 0.981976C7.72395 1.30822 6.82956 1.86694 6.58047 2.13395C6.35246 2.37836 6.23004 2.69316 6.23004 3.03509C6.23004 3.77709 6.79738 4.35365 7.53137 4.35754C7.84624 4.35922 8.03652 4.28912 8.41784 4.03105C9.61574 3.22024 10.8654 2.77677 12.3248 2.64457C12.7011 2.6105 13.6437 2.6316 14.0016 2.68212C15.2144 2.85326 16.2425 3.21557 17.2393 3.82304C19.0413 4.92127 20.3834 6.71288 20.9372 8.75947C21.0911 9.32821 21.199 10.0067 21.2185 10.5284C21.2239 10.6723 21.2322 10.8339 21.237 10.8874L21.2457 10.9847H20.1626C19.5669 10.9847 19.0795 10.9889 19.0795 10.994C19.0795 11.0139 22.5385 16.2844 22.5513 16.284C22.5717 16.2834 26.012 11.0074 26 10.9952C25.9943 10.9894 25.5037 10.9847 24.9097 10.9847H23.8298L23.8297 10.767C23.829 9.96349 23.6716 8.87962 23.43 8.01539C23.1147 6.88749 22.686 5.93843 22.0133 4.87887C21.7862 4.52127 21.6799 4.37911 21.2375 3.84116C20.5406 2.99371 19.6476 2.21324 18.6766 1.60282C17.8205 1.06464 16.7021 0.578177 15.7762 0.34119C15.0422 0.153364 14.7733 0.103777 14.0016 0.0139592C13.8739 -0.00090233 12.0843 -0.00568321 11.945 0.00847413ZM1.71994 8.34162C0.767659 9.79258 -0.00629515 10.985 3.85995e-05 10.9915C0.00637234 10.9979 0.492123 11.0032 1.07947 11.0032H2.14738L2.15894 11.3877C2.21969 13.4088 2.8468 15.379 3.98298 17.1183C4.36663 17.7056 5.01067 18.4853 5.51356 18.9714C6.59511 20.0167 7.85798 20.8092 9.27792 21.3338C10.2382 21.6885 11.01 21.86 12.1725 21.9768C12.5227 22.012 13.622 22.0059 13.9925 21.9666C15.415 21.816 16.6257 21.4627 17.8419 20.8435C18.377 20.5711 19.0863 20.1322 19.3181 19.93C19.593 19.6904 19.7498 19.3585 19.7667 18.9802C19.7776 18.7381 19.7382 18.544 19.6347 18.3294C19.4093 17.8619 18.8808 17.5679 18.3563 17.6182C18.1098 17.6419 17.9299 17.7118 17.6726 17.8839C17.2768 18.1487 16.984 18.322 16.6498 18.4892C15.4697 19.0797 14.2742 19.3592 12.9278 19.3594C11.8262 19.3595 10.4834 19.0442 9.45887 18.5449C7.79149 17.7321 6.44599 16.3878 5.62062 14.7099C5.09808 13.6477 4.80571 12.4943 4.76201 11.3229L4.75009 11.0032H5.8281C6.73698 11.0032 6.9052 10.9992 6.90024 10.9776C6.8929 10.9456 3.47665 5.70641 3.46201 5.70471C3.45615 5.70404 2.67222 6.89064 1.71994 8.34162Z" fill="white"/></svg>