<svg width="27" height="22" fill="none" xmlns="http://www.w3.org/2000/svg"><path fill-rule="evenodd" clip-rule="evenodd" d="M25.9673 0.0118801C25.7633 0.0827881 25.1268 0.306923 24.9608 0.366306C24.7663 0.435878 24.5996 0.494936 24.2865 0.60521C24.2274 0.626047 24.0603 0.686346 23.9152 0.739202C23.1677 1.01158 22.9408 1.09342 22.8696 1.11639C22.8266 1.13026 22.6771 1.1849 22.5373 1.23779C22.3976 1.2907 22.2757 1.33408 22.2664 1.33419C22.2572 1.33431 22.1736 1.36341 22.0808 1.39886C21.9879 1.4343 21.8284 1.49358 21.7262 1.53056C21.6241 1.56756 21.4306 1.63801 21.2963 1.68711C21.1619 1.73621 20.9596 1.80923 20.8468 1.84938C20.7339 1.88953 20.58 1.94527 20.5047 1.97328C20.4295 2.00127 20.2976 2.04854 20.2116 2.07829C20.1256 2.10805 19.9717 2.16381 19.8696 2.2022C19.7674 2.2406 19.6267 2.29237 19.5569 2.31725C19.3399 2.39453 19.0664 2.49364 18.8728 2.56518C18.7707 2.6029 18.608 2.66217 18.5112 2.69688C18.4145 2.73157 18.2166 2.80336 18.0715 2.85639C17.9264 2.90941 17.579 3.03589 17.2995 3.13744C16.2841 3.50639 15.9645 3.62281 15.648 3.73907C15.4707 3.80422 15.2684 3.87734 15.1985 3.90155C15.1286 3.92577 14.9747 3.98158 14.8565 4.02559C14.5144 4.15284 14.3978 4.19509 14.2311 4.2522C14.1451 4.28166 14.0307 4.32298 13.977 4.34402C13.8443 4.39598 13.6066 4.4841 13.3711 4.56858C13.2636 4.60712 13.1075 4.66374 13.0242 4.69437C12.7224 4.80533 12.5662 4.86223 12.3744 4.93107C12.2669 4.96966 12.113 5.02597 12.0324 5.05621C11.8748 5.11529 10.7582 5.52246 10.6444 5.56232C10.4881 5.61707 10.0451 5.77836 9.99977 5.79703C9.9729 5.80809 9.72664 5.89835 9.45254 5.99761C8.38339 6.38473 8.09097 6.4913 8.00627 6.52469C7.9579 6.54376 7.80399 6.59953 7.66425 6.64863C7.52451 6.69773 7.3706 6.75346 7.32223 6.77249C7.20486 6.81863 7.01787 6.88755 6.4232 7.10386C6.14909 7.20355 5.73133 7.35595 5.49485 7.44253C5.25837 7.5291 4.98573 7.62777 4.88898 7.66182C4.79224 7.69586 4.62953 7.75482 4.52742 7.79283C4.35891 7.85557 4.17785 7.92175 3.62839 8.1214C3.52627 8.15849 3.38995 8.2088 3.32545 8.23314C3.26096 8.25749 3.04988 8.33453 2.85639 8.40435C2.48099 8.53977 2.13752 8.66582 2.02577 8.70918C1.98815 8.72377 1.69352 8.83142 1.37104 8.94837C0.577001 9.23639 0.50246 9.26579 0.402472 9.3304C0.265859 9.41872 0.141499 9.54878 0.0795446 9.66819C0.0243129 9.77461 0.0224953 9.7869 0.0224953 10.0548C0.0224953 10.3243 0.0240197 10.3344 0.0811277 10.4448C0.160575 10.5984 0.299944 10.7424 0.436772 10.8125C0.499157 10.8444 0.770058 10.9367 1.03879 11.0177C1.30752 11.0986 1.56257 11.1765 1.60557 11.1906C1.64857 11.2048 1.80248 11.252 1.94759 11.2955C2.09271 11.339 2.29059 11.3989 2.38733 11.4287C2.48408 11.4585 2.63359 11.5041 2.71958 11.53C3.01009 11.6174 3.40263 11.7368 3.57953 11.7915C3.67627 11.8215 3.86096 11.8773 3.98995 11.9156C4.11894 11.9538 4.31683 12.0139 4.4297 12.0491C4.54256 12.0843 4.70967 12.1356 4.80103 12.1632C4.8924 12.1907 5.04631 12.2378 5.14306 12.2679C5.2398 12.298 5.42449 12.3542 5.55348 12.3927C5.68247 12.4313 5.94192 12.5101 6.13003 12.568C6.31815 12.6259 6.52483 12.6886 6.58932 12.7073C6.81699 12.7735 6.77755 12.709 7.00995 13.3956C7.12512 13.7359 7.45026 14.6969 7.73246 15.5313C8.01468 16.3656 8.28913 17.1728 8.34237 17.325C8.39561 17.4771 8.44611 17.6274 8.45457 17.6589C8.46306 17.6904 8.60866 18.124 8.77817 18.6225C8.94765 19.121 9.13449 19.6706 9.19334 19.8438C9.31964 20.2154 9.37004 20.3137 9.50239 20.4464C9.68687 20.6314 9.91493 20.712 10.2538 20.712C10.4785 20.712 10.4787 20.7119 10.648 20.6311C10.8202 20.5489 10.8469 20.5271 11.3778 20.0362C11.4639 19.9566 11.5959 19.8356 11.6711 19.7674C11.7463 19.6992 11.9441 19.5184 12.1107 19.3655C12.4157 19.0856 13.3411 18.2373 13.5757 18.0226C13.6452 17.959 13.7815 17.8336 13.8786 17.7439C13.9757 17.6542 14.1328 17.5103 14.2277 17.4241L14.4003 17.2673L14.4623 17.3096C14.4963 17.3329 14.6869 17.4688 14.8858 17.6116C15.0847 17.7543 15.4057 17.9843 15.5992 18.1227C16.0418 18.4391 16.8455 19.0147 17.6404 19.5845C17.9784 19.8268 18.4414 20.1581 18.6692 20.3208C19.2631 20.7449 20.1317 21.3668 20.419 21.5738C20.7397 21.8048 20.9011 21.8955 21.0651 21.9367C21.1385 21.9552 21.1986 21.977 21.1986 21.9851C21.1986 21.9933 21.3129 22 21.4526 22C21.5924 22 21.7067 21.9925 21.7067 21.9834C21.7067 21.9743 21.759 21.9568 21.8229 21.9445C22.1002 21.8912 22.4058 21.6664 22.5399 21.4171C22.653 21.2067 22.6718 21.1369 22.8789 20.1586C22.91 20.0117 22.9671 19.7455 23.0059 19.5671C23.0447 19.3887 23.1017 19.1225 23.1327 18.9755C23.2106 18.6059 23.2459 18.4425 23.3101 18.155C23.3405 18.0186 23.3745 17.8597 23.3855 17.802C23.3965 17.7443 23.4372 17.5511 23.4759 17.3727C23.5644 16.9643 23.6881 16.3895 23.7489 16.1037C23.7746 15.983 23.8228 15.7598 23.856 15.6076C23.8892 15.4554 23.9418 15.2107 23.9728 15.0638C24.0388 14.7517 24.167 14.1584 24.1893 14.062C24.1977 14.0252 24.2222 13.9093 24.2436 13.8044C24.2651 13.6994 24.3061 13.5062 24.3347 13.375C24.3634 13.2438 24.4208 12.9776 24.4623 12.7835C24.5038 12.5893 24.5694 12.2845 24.608 12.1061C24.6468 11.9277 24.7005 11.6744 24.7275 11.5432C24.7544 11.412 24.7933 11.2317 24.8137 11.1425C24.8342 11.0532 24.8783 10.8515 24.9117 10.694C25.0512 10.0367 25.1133 9.74751 25.1578 9.54912C25.1837 9.43368 25.2177 9.27482 25.2333 9.19611C25.2635 9.04479 25.3707 8.54324 25.4884 8.00349C25.5272 7.82508 25.576 7.59753 25.5966 7.49783C25.6172 7.39812 25.6656 7.17057 25.7042 6.99216C25.8119 6.49344 25.9253 5.96567 25.977 5.72322C26.0027 5.60253 26.0509 5.37927 26.084 5.22709C26.1172 5.07491 26.1699 4.83019 26.201 4.68326C26.2322 4.53633 26.2892 4.27014 26.3278 4.09172C26.3664 3.91331 26.4235 3.64712 26.4547 3.50019C26.4859 3.35326 26.5439 3.08277 26.5836 2.89911C26.6233 2.71545 26.6804 2.44926 26.7106 2.30757C26.7408 2.16589 26.7973 1.90399 26.836 1.72558C27.0007 0.967134 27.0073 0.929047 26.9968 0.790571C26.9834 0.612804 26.9583 0.538423 26.8665 0.404221C26.7794 0.27685 26.6295 0.151864 26.4544 0.0606913C26.3453 0.00388479 26.3211 -0.00119097 26.166 0.000182918C26.0728 0.00100344 25.9834 0.00627001 25.9673 0.0118801ZM0 0.857357C0 0.946564 0.00338113 0.983049 0.0074854 0.938455C0.0116092 0.893841 0.0116092 0.820853 0.0074854 0.776259C0.00338113 0.731646 0 0.768149 0 0.857357ZM22.0451 3.86585C22.113 3.90014 22.1631 4.00826 22.1461 4.08392C22.1336 4.13922 21.8187 4.43791 21.0638 5.11027C21.0358 5.13523 20.9733 5.19106 20.9249 5.23432C20.8766 5.2776 20.749 5.39028 20.6415 5.48471C20.5341 5.57917 20.4417 5.66072 20.4363 5.66597C20.431 5.67122 20.3342 5.75707 20.2213 5.85675C20.1085 5.95642 19.9018 6.14038 19.7621 6.26554C19.6223 6.3907 19.4728 6.52389 19.4298 6.56152C19.1874 6.77361 18.703 7.20118 18.4127 7.45932C18.2295 7.62218 18.001 7.82412 17.9048 7.90808C17.8087 7.99204 17.6724 8.11226 17.602 8.17523C17.5315 8.2382 17.3379 8.40982 17.1717 8.55662C17.0055 8.70341 16.8651 8.82798 16.8598 8.83342C16.8544 8.83888 16.6741 8.99771 16.4591 9.18641C16.2441 9.37509 16.0638 9.53437 16.0585 9.54034C16.0531 9.54632 15.82 9.75229 15.5405 9.99806C14.98 10.491 14.3929 11.0105 14.3777 11.0269C14.3723 11.0328 14.3283 11.0712 14.2799 11.1125C14.1854 11.193 14.0382 11.3225 13.547 11.7568C13.375 11.9089 13.0364 12.2076 12.7946 12.4207C12.5527 12.6338 12.2757 12.8785 12.1789 12.9644C12.0822 13.0503 11.7744 13.3207 11.4949 13.5652C11.2154 13.8097 10.9734 14.0237 10.9571 14.0407C10.9407 14.0576 10.888 14.105 10.8398 14.1459C10.5572 14.386 10.5542 14.3899 10.54 14.5425C10.5329 14.6193 10.518 14.768 10.5069 14.8729C10.4959 14.9779 10.47 15.2441 10.4495 15.4645C10.4291 15.6849 10.39 16.0842 10.3628 16.3518C10.3356 16.6194 10.295 17.0187 10.2727 17.2391C10.2503 17.4595 10.2221 17.7579 10.21 17.9022C10.1979 18.0465 10.1811 18.1646 10.1728 18.1646C10.1645 18.1646 10.148 18.1281 10.1362 18.0835C10.1167 18.0101 10.0616 17.8313 9.9317 17.4204C9.81103 17.0387 9.68834 16.6454 9.55964 16.2278C9.52082 16.1018 9.46393 15.9215 9.43319 15.827C9.40244 15.7326 9.3408 15.5351 9.29618 15.3882C9.25158 15.2412 9.20306 15.0867 9.18832 15.0447C9.1736 15.0027 9.13997 14.8954 9.11358 14.8062C9.0872 14.717 9.02487 14.5152 8.97505 14.3577C8.77105 13.7129 8.6593 13.3561 8.44318 12.6595C8.39434 12.502 8.3428 12.3375 8.32865 12.2937L8.30291 12.2142L8.69694 11.9667C8.91365 11.8306 9.34162 11.5625 9.64798 11.3709C9.95433 11.1793 10.2622 10.9866 10.332 10.9427C10.6674 10.7322 12.5095 9.5815 12.5783 9.53958C12.6214 9.51334 12.828 9.38454 13.0373 9.25335C13.2467 9.12216 13.4666 8.98478 13.5262 8.94804C13.6981 8.84191 14.5642 8.30155 15.0128 8.02051C15.2386 7.8791 15.5098 7.71007 15.6156 7.64493C15.8827 7.48042 15.95 7.43858 16.6252 7.01737C16.9531 6.81285 17.4808 6.48401 17.7979 6.28663C18.115 6.08924 18.4184 5.90022 18.4722 5.8666C18.5259 5.83298 18.7062 5.7212 18.8728 5.61817C19.2252 5.4003 19.2651 5.37555 19.6937 5.10907C19.871 4.9988 20.1832 4.80571 20.3875 4.68002C20.5917 4.5543 20.9171 4.35372 21.1106 4.23426C21.7668 3.82918 21.8017 3.81113 21.9019 3.82534C21.9501 3.83221 22.0146 3.85043 22.0451 3.86585Z" fill="url(#paint0_linear_24_915)"/><defs><linearGradient id="paint0_linear_24_915" x1="0" y1="0" x2="28.3267" y2="1.35987" gradientUnits="userSpaceOnUse"><stop stop-color="#1474EB"/><stop offset="0.5" stop-color="#6F14EB"/><stop offset="1" stop-color="#E218EF"/></linearGradient></defs></svg>