<svg width="17" height="20" fill="none" xmlns="http://www.w3.org/2000/svg"><path d="M17 17.7574C17 15.4903 16.1153 13.3578 14.5113 11.7559C13.3957 10.6418 12.0226 9.8745 10.5269 9.51128C12.2637 8.73584 13.4774 6.99316 13.4774 4.97092C13.4774 2.23038 11.2441 0 8.5 0C5.75589 0 3.5226 2.23038 3.5226 4.97092C3.5226 6.99112 4.7363 8.7338 6.47308 9.51128C4.9774 9.8745 3.60433 10.6418 2.4887 11.7559C0.884736 13.3578 0 15.4903 0 17.7574C0 18.3124 0.0531249 18.8593 0.157332 19.3939H0.169591C0.267668 19.7429 0.588462 20 0.966466 20H16.0335C16.4115 20 16.7323 19.7429 16.8304 19.3939H16.8427C16.9469 18.8593 17 18.3124 17 17.7574Z" fill="#444455"/></svg>