<svg width="33" height="19" fill="none" xmlns="http://www.w3.org/2000/svg"><path fill-rule="evenodd" clip-rule="evenodd" d="M14.0939 0.0117036C14.0367 0.0176428 13.902 0.0288509 13.7947 0.0366165C13.6874 0.0443689 13.5411 0.0560899 13.4696 0.0626598C13.398 0.0692296 13.237 0.0834071 13.1119 0.0941686C12.9058 0.111894 12.7326 0.14071 12.6631 0.168842C12.6287 0.182757 12.5853 0.190969 12.4264 0.213556C12.3346 0.226617 12.2686 0.244645 12.2118 0.272186C12.1667 0.29405 12.0918 0.321473 12.0453 0.333128C11.9644 0.35339 11.8761 0.388669 11.7201 0.463079C11.6807 0.48183 11.5959 0.535164 11.5315 0.581573C11.4671 0.627996 11.3933 0.68066 11.3674 0.698596C11.3064 0.741024 11.0959 0.970628 11.0661 1.02734C11.0214 1.11233 10.99 1.22135 10.9987 1.26138C11.0098 1.31244 11.0685 1.34742 11.1599 1.35742C11.3265 1.37565 11.3947 1.38948 11.4549 1.41721C11.4899 1.43333 11.5612 1.45706 11.6134 1.46995C11.6656 1.48284 11.7299 1.50572 11.7564 1.5208C11.7829 1.5359 11.8456 1.56858 11.8957 1.59344C12.1345 1.71202 12.3265 1.86803 12.4891 2.07585C12.5452 2.1475 12.6452 2.32083 12.6723 2.39333C12.6863 2.4306 12.7145 2.49675 12.735 2.54034C12.7555 2.58394 12.7786 2.64898 12.7864 2.68488C12.7942 2.72079 12.8205 2.82999 12.8448 2.92755C12.8691 3.02512 12.8928 3.14929 12.8974 3.20349C12.9114 3.36844 12.9422 3.61183 12.9623 3.71594C12.9883 3.85099 13.0055 4.26774 13.022 5.16788C13.0413 6.21429 13.0174 7.08971 12.9608 7.41477C12.9432 7.51568 12.9209 7.6895 12.8905 7.96355C12.8826 8.03412 12.8648 8.12541 12.8508 8.1664C12.8368 8.2074 12.8194 8.27975 12.812 8.32717C12.7908 8.46407 12.7595 8.57874 12.7276 8.63654C12.7113 8.66593 12.6885 8.72333 12.6767 8.76408C12.665 8.80481 12.6373 8.86336 12.6152 8.89417C12.5931 8.92498 12.5636 8.97639 12.5496 9.0084C12.5353 9.04092 12.4801 9.11146 12.4245 9.16828C12.3414 9.25316 12.3077 9.27735 12.2209 9.31471C12.1223 9.35706 12.1088 9.35942 11.9672 9.359C11.8504 9.35866 11.8062 9.35327 11.7656 9.33446C11.737 9.32121 11.6757 9.29612 11.6293 9.27869C11.583 9.26127 11.5303 9.23311 11.5123 9.21612C11.4942 9.19913 11.4531 9.16895 11.4209 9.14906C11.3495 9.10495 11.1971 8.99261 11.1359 8.93898C11.0584 8.87114 11.0077 8.8175 10.7133 8.49223C10.6806 8.45609 10.6289 8.39139 10.5984 8.34845C10.5679 8.30551 10.5192 8.24343 10.4902 8.21049C10.4613 8.17754 10.4276 8.13581 10.4154 8.11775C10.3583 8.03306 10.297 7.94998 10.2651 7.91408C10.2459 7.8924 10.2139 7.84805 10.1942 7.81553C10.1744 7.78301 10.1395 7.73208 10.1165 7.70236C10.0935 7.67262 10.0647 7.63123 10.0525 7.61038C10.0403 7.58951 9.99798 7.5281 9.95847 7.4739C9.91895 7.4197 9.86863 7.34283 9.84665 7.30308C9.80948 7.23589 9.78247 7.19369 9.6784 7.04029C9.63728 6.97967 9.53781 6.82401 9.44333 6.67238C9.41405 6.6254 9.35974 6.53899 9.32265 6.48035C9.22918 6.33261 9.1849 6.25727 9.14207 6.17307C9.12185 6.13332 9.07309 6.05054 9.03372 5.98911C8.99434 5.92768 8.94517 5.8449 8.92447 5.80515C8.90376 5.76541 8.87566 5.72099 8.86202 5.70645C8.84837 5.69192 8.81948 5.64757 8.79781 5.6079C8.77614 5.56824 8.72888 5.48221 8.69276 5.41672C8.62755 5.29849 8.55561 5.16173 8.46825 4.98994C8.44321 4.9407 8.41272 4.88945 8.40049 4.87603C8.38825 4.8626 8.36315 4.81712 8.34468 4.77496C8.32622 4.73278 8.29745 4.67976 8.28076 4.65715C8.26407 4.63452 8.23751 4.58053 8.22176 4.53717C8.206 4.49381 8.17838 4.43879 8.16039 4.41492C8.14239 4.39104 8.11294 4.33487 8.09495 4.29009C8.07695 4.24531 8.04893 4.18503 8.03267 4.15612C8.01641 4.12721 7.99255 4.074 7.97964 4.03786C7.96673 4.00173 7.94074 3.94851 7.92189 3.9196C7.90303 3.8907 7.87981 3.84635 7.87028 3.82106C7.86074 3.79576 7.83699 3.7455 7.81748 3.70937C7.79797 3.67323 7.77163 3.61137 7.75896 3.57191C7.74629 3.53244 7.72028 3.47331 7.70114 3.44052C7.68202 3.40771 7.65567 3.35252 7.64257 3.31786C7.62949 3.28319 7.60297 3.22964 7.58364 3.19885C7.56431 3.16806 7.53884 3.11353 7.52705 3.07767C7.51527 3.04182 7.48647 2.98302 7.46307 2.94701C7.43968 2.91102 7.41275 2.85791 7.40322 2.82901C7.39372 2.8001 7.37224 2.74688 7.35551 2.71075C7.33879 2.67461 7.31037 2.59864 7.29235 2.54192C7.27435 2.48518 7.24699 2.41718 7.23158 2.39081C7.21617 2.36442 7.18621 2.29325 7.16502 2.23263C7.14383 2.17201 7.11276 2.10105 7.09595 2.07496C7.07915 2.04885 7.05853 2.00087 7.05013 1.96835C7.04174 1.93583 7.0154 1.87375 6.99161 1.83039C6.96782 1.78703 6.94431 1.72924 6.93936 1.70196C6.93442 1.67468 6.91641 1.63329 6.89935 1.60998C6.88228 1.58667 6.85127 1.53211 6.83042 1.48875C6.80959 1.44539 6.78179 1.39809 6.76865 1.38362C6.75553 1.36917 6.72911 1.33665 6.70995 1.31135C6.5827 1.14343 6.3526 0.984004 6.15946 0.929934C6.10222 0.913904 6.01442 0.886061 5.96435 0.868033C5.91427 0.850018 5.84696 0.830401 5.81476 0.824448C5.72301 0.807485 1.0992 0.809259 0.93133 0.826315C0.854171 0.834159 0.760974 0.849283 0.724202 0.859926C0.687444 0.870556 0.595157 0.89246 0.519116 0.908595C0.410245 0.931708 0.368791 0.947081 0.324007 0.980969C0.292737 1.00463 0.238536 1.04283 0.203559 1.06585C0.134504 1.1113 0.0448183 1.24512 0.0159941 1.34574C-0.0147031 1.4529 -0.000499118 1.62367 0.0524666 1.7844C0.0655779 1.82415 0.0860775 1.89806 0.0980572 1.94864C0.110024 1.99923 0.14504 2.09384 0.17588 2.15888C0.269012 2.35528 0.327519 2.48485 0.344962 2.53336C0.354067 2.55866 0.379795 2.61556 0.402129 2.65982C0.424475 2.70407 0.44275 2.74713 0.44275 2.75551C0.44275 2.77392 0.507254 2.90515 0.520846 2.91441C0.526153 2.91803 0.546184 2.96533 0.565357 3.01953C0.58453 3.07373 0.613614 3.13877 0.62999 3.16407C0.646367 3.18936 0.66965 3.24024 0.681746 3.27714C0.693843 3.31403 0.72108 3.37185 0.742282 3.40562C0.763484 3.4394 0.79344 3.50677 0.808841 3.55534C0.824241 3.60392 0.852727 3.66732 0.872147 3.69623C0.891567 3.72514 0.911689 3.76357 0.916866 3.78164C0.922043 3.7997 0.948617 3.86179 0.975919 3.9196C1.00321 3.97742 1.03292 4.04454 1.04193 4.06875C1.05096 4.09297 1.07107 4.13173 1.08664 4.1549C1.10219 4.17807 1.13067 4.23864 1.1499 4.28949C1.16914 4.34032 1.19862 4.40075 1.21541 4.42375C1.23222 4.44674 1.25908 4.50236 1.27511 4.54735C1.29115 4.59234 1.31273 4.6389 1.32308 4.65082C1.33342 4.66272 1.35822 4.71666 1.37816 4.77066C1.3981 4.82467 1.43028 4.88984 1.44964 4.9155C1.46901 4.94116 1.49053 4.98288 1.49746 5.0082C1.50438 5.03354 1.53091 5.0849 1.55641 5.12235C1.5819 5.1598 1.61371 5.22254 1.62708 5.26179C1.64044 5.30103 1.6633 5.35006 1.67787 5.37073C1.69244 5.3914 1.71527 5.44369 1.72859 5.48694C1.74191 5.53018 1.7705 5.58843 1.7921 5.61638C1.81372 5.64432 1.84046 5.69506 1.85153 5.72913C1.8626 5.76319 1.88859 5.8164 1.90928 5.84738C1.92998 5.87836 1.95493 5.9244 1.96471 5.94969C1.9745 5.97498 1.99751 6.01867 2.01584 6.04678C2.03415 6.07489 2.055 6.11015 2.06216 6.12513C2.08097 6.16454 2.13782 6.27629 2.17012 6.33731C2.18542 6.36622 2.21311 6.42239 2.23166 6.46214C2.25022 6.50189 2.27918 6.55981 2.29604 6.59086C2.31289 6.62189 2.33291 6.66328 2.34053 6.68284C2.34815 6.70237 2.38656 6.77454 2.42591 6.84319C2.46524 6.91185 2.51499 7.00461 2.53646 7.04934C2.55792 7.09406 2.599 7.16741 2.62774 7.21234C2.65649 7.25726 2.68 7.30106 2.68 7.30967C2.68 7.33242 2.71661 7.40294 2.73751 7.42047C2.74737 7.42875 2.76882 7.46927 2.78516 7.51054C2.80151 7.55182 2.82782 7.60333 2.84364 7.62501C2.85944 7.64669 2.89712 7.71173 2.92735 7.76954C2.95757 7.82736 3.00015 7.90718 3.02198 7.94693C3.04381 7.98668 3.07932 8.05467 3.10091 8.09804C3.12249 8.1414 3.1556 8.20053 3.1745 8.22943C3.19339 8.25834 3.21845 8.30681 3.23021 8.33715C3.24196 8.36749 3.27808 8.43143 3.31048 8.47923C3.34288 8.52705 3.36939 8.5736 3.36939 8.5827C3.36939 8.5918 3.39567 8.63725 3.42778 8.6837C3.4599 8.73016 3.48624 8.77271 3.48631 8.77828C3.48639 8.78384 3.50181 8.81296 3.52057 8.84298C3.53933 8.873 3.59567 8.97783 3.64577 9.07595C3.69587 9.17406 3.75276 9.27269 3.77219 9.29512C3.79162 9.31756 3.83979 9.39147 3.87923 9.45936C3.91866 9.52727 3.96328 9.60352 3.97838 9.62881C3.99347 9.65411 4.02424 9.71028 4.04676 9.75364C4.06929 9.797 4.09597 9.84195 4.10605 9.85354C4.11614 9.86513 4.14913 9.91893 4.17938 9.97309C4.23893 10.0797 4.2617 10.1168 4.4107 10.3493C4.58158 10.6159 4.61623 10.6726 4.62894 10.7063C4.63574 10.7243 4.6601 10.7628 4.68306 10.7917C4.70602 10.8206 4.7421 10.8768 4.76324 10.9165C4.82089 11.0249 4.88478 11.1283 4.92307 11.1751C4.94187 11.1981 4.99463 11.2749 5.04031 11.3459C5.086 11.4169 5.13752 11.4927 5.15481 11.5144C5.17211 11.536 5.20525 11.5893 5.22847 11.6326C5.25169 11.676 5.28118 11.7233 5.294 11.7377C5.30683 11.7522 5.38581 11.8675 5.46952 11.994C5.64612 12.2608 5.6777 12.3062 5.78266 12.4443C5.82535 12.5005 5.88663 12.584 5.91882 12.6298C6.02936 12.7872 6.12049 12.9176 6.15946 12.9741C6.23612 13.0853 6.46161 13.3855 6.54348 13.4853C6.57313 13.5215 6.64225 13.6108 6.69709 13.6839C6.82432 13.8535 6.93961 13.9964 7.05632 14.1292C7.17969 14.2695 7.25992 14.3681 7.30055 14.4292C7.31898 14.457 7.37799 14.5279 7.4317 14.5869C7.48541 14.6459 7.58695 14.7589 7.65735 14.838C7.72776 14.917 7.82401 15.0205 7.87125 15.0679C7.9185 15.1153 8.01665 15.2183 8.08939 15.2968C8.20693 15.4237 8.28511 15.5006 8.61133 15.8103C8.65783 15.8545 8.73685 15.9257 8.78693 15.9687C8.83701 16.0116 8.91038 16.0765 8.94997 16.1129C9.03104 16.1873 9.02401 16.1814 9.25715 16.3719C9.35124 16.4488 9.44196 16.5189 9.45877 16.5276C9.47557 16.5363 9.50981 16.5628 9.53485 16.5865C9.55989 16.6103 9.63013 16.6635 9.69094 16.7049C9.75174 16.7463 9.82491 16.8006 9.85353 16.8257C9.88214 16.8508 9.96482 16.9077 10.0372 16.9522C10.2 17.0521 10.4768 17.2367 10.5319 17.2821C10.5544 17.3007 10.6159 17.3366 10.6684 17.3619C10.8003 17.4254 10.9155 17.4897 10.9675 17.5289C10.9915 17.5471 11.0902 17.6018 11.1868 17.6506C11.2834 17.6993 11.377 17.7495 11.3949 17.762C11.4128 17.7746 11.461 17.7974 11.5021 17.8128C11.5432 17.8281 11.5988 17.8547 11.6257 17.8717C11.6526 17.8888 11.7067 17.9149 11.7461 17.9297C11.7854 17.9446 11.8596 17.978 11.9109 18.004C11.9622 18.0301 12.011 18.0514 12.0194 18.0514C12.0279 18.0514 12.0796 18.0746 12.1343 18.103C12.1891 18.1313 12.2631 18.1642 12.2989 18.1761C12.3347 18.1879 12.3903 18.2124 12.4225 18.2306C12.4547 18.2487 12.527 18.2746 12.5832 18.2882C12.6394 18.3018 12.7135 18.3277 12.7478 18.3458C12.782 18.3639 12.8605 18.3913 12.9221 18.4066C12.9837 18.4219 13.059 18.4482 13.0893 18.4651C13.1196 18.4819 13.1795 18.5024 13.2224 18.5106C13.3616 18.5374 13.4303 18.5539 13.4435 18.5638C13.4709 18.5842 13.6056 18.6283 13.6853 18.6429C13.731 18.6512 13.8104 18.6723 13.8616 18.6897C13.9901 18.7333 14.1014 18.7574 14.224 18.7682C14.2812 18.7732 14.3661 18.7859 14.4126 18.7963C14.4591 18.8068 14.5615 18.8297 14.6402 18.8473C14.7189 18.8649 14.8711 18.8914 14.9784 18.9061C15.0857 18.9207 15.2116 18.9381 15.2581 18.9447C15.526 18.9823 15.667 18.9854 16.9555 18.9815C18.3859 18.9772 18.2956 18.9817 18.4448 18.9059C18.5316 18.8619 18.7196 18.7821 18.7856 18.7613C18.8147 18.7522 18.8722 18.709 18.9315 18.6517C19.0715 18.5165 19.1294 18.4293 19.1647 18.3005C19.1754 18.261 19.1991 18.193 19.2172 18.1493C19.2581 18.0508 19.2773 17.8399 19.2773 17.4892C19.2773 17.3556 19.2834 17.1924 19.2909 17.1265C19.3042 17.0085 19.3095 16.9715 19.3481 16.7243C19.3588 16.6556 19.3766 16.524 19.3877 16.4317C19.3987 16.3394 19.4219 16.2212 19.4393 16.1689C19.4566 16.1166 19.4829 16.0177 19.4976 15.949C19.5266 15.8139 19.5455 15.7564 19.5712 15.7256C19.5802 15.7148 19.5991 15.6628 19.613 15.6101C19.627 15.5575 19.6589 15.4806 19.6838 15.4393C19.7088 15.3981 19.7367 15.3407 19.7459 15.3117C19.7823 15.1977 19.8853 15.0507 20.0222 14.917C20.2191 14.7249 20.3039 14.6633 20.441 14.6129C20.6231 14.5458 20.6883 14.5353 20.8011 14.5552C20.8537 14.5644 20.9084 14.5767 20.9227 14.5825C20.937 14.5883 20.9956 14.6089 21.0528 14.6283C21.11 14.6478 21.1773 14.6758 21.2024 14.6906C21.2274 14.7054 21.2743 14.7322 21.3064 14.7502C21.3386 14.7682 21.3767 14.7931 21.391 14.8055C21.4053 14.8179 21.4719 14.8656 21.5389 14.9115C21.7093 15.0281 22.1827 15.4662 22.2738 15.5918C22.2912 15.6157 22.3718 15.7044 22.4531 15.7889C22.5896 15.931 22.6951 16.0501 22.9844 16.3886C23.0452 16.4597 23.101 16.5245 23.1085 16.5324C23.1159 16.5404 23.1564 16.5883 23.1984 16.6389C23.2404 16.6894 23.3229 16.7811 23.3816 16.8425C23.4403 16.904 23.5605 17.037 23.6486 17.1382C23.8395 17.3574 24.4488 17.9736 24.5189 18.0183C24.546 18.0356 24.6084 18.0859 24.6576 18.1302C24.7067 18.1744 24.7937 18.2426 24.8509 18.2818C24.9082 18.321 24.9989 18.3833 25.0525 18.4203C25.1062 18.4572 25.1794 18.5025 25.2151 18.5209C25.2509 18.5393 25.2977 18.5674 25.3192 18.5833C25.3862 18.6329 25.6294 18.7461 25.7102 18.7653C25.7902 18.7844 25.8372 18.8038 25.937 18.8591C25.9692 18.877 26.0114 18.8917 26.0307 18.892C26.0501 18.8922 26.1203 18.9105 26.1868 18.9326C26.2833 18.9647 26.3472 18.9759 26.5029 18.9877C26.6102 18.9959 26.7243 19.0013 26.7565 18.9997C26.7887 18.9981 27.9184 18.9924 29.2669 18.9869C31.3073 18.9786 31.7264 18.9739 31.7643 18.9587C31.7893 18.9487 31.8279 18.9328 31.8501 18.9234C31.8722 18.9139 31.9424 18.8939 32.0062 18.8789C32.0699 18.8639 32.1513 18.8377 32.187 18.8206C32.2228 18.8035 32.2899 18.7797 32.3361 18.7676C32.3823 18.7555 32.4378 18.733 32.4593 18.7175C32.4808 18.702 32.5313 18.6714 32.5715 18.6496C32.6699 18.596 32.8446 18.4039 32.905 18.2828C32.9867 18.1188 33 18.0571 33 17.8405C33 17.6974 32.9951 17.6364 32.9813 17.609C32.9416 17.5302 32.9166 17.4633 32.8935 17.3747C32.8803 17.3241 32.8493 17.2496 32.8246 17.2092C32.8 17.1687 32.7734 17.1189 32.7657 17.0983C32.7524 17.0629 32.527 16.6756 32.4793 16.606C32.4669 16.5879 32.4438 16.5495 32.4279 16.5206C32.412 16.4917 32.3773 16.4385 32.3506 16.4023C32.3239 16.3662 32.275 16.2982 32.2418 16.2512C32.2087 16.2043 32.1705 16.151 32.1571 16.133C32.1436 16.1149 32.1103 16.0676 32.083 16.0279C32.0556 15.9881 32.0031 15.9201 31.9661 15.8768C31.8951 15.7933 31.7966 15.6671 31.7318 15.5765C31.7103 15.5465 31.6592 15.4873 31.6182 15.4449C31.5772 15.4025 31.5257 15.3404 31.5039 15.3069C31.4574 15.2358 31.3453 15.1043 31.2899 15.0562C31.2211 14.9964 31.1491 14.9194 31.012 14.7593C30.8663 14.5892 29.9753 13.6787 29.8308 13.5524C29.7821 13.5099 29.6912 13.4176 29.6287 13.3475C29.5662 13.2773 29.4695 13.1857 29.4138 13.1438C29.358 13.102 29.2771 13.0316 29.2339 12.9875C29.1281 12.8794 28.955 12.7134 28.7661 12.539C28.5381 12.3284 28.3767 12.1623 28.1342 11.8888C27.9087 11.6344 27.7966 11.4763 27.7646 11.3674C27.7541 11.3317 27.7313 11.289 27.7138 11.2725C27.6736 11.2343 27.6621 11.2045 27.6218 11.0329C27.5991 10.9362 27.5891 10.8572 27.5895 10.7767C27.5901 10.6612 27.5957 10.6222 27.6316 10.4829C27.6419 10.4431 27.6578 10.3781 27.6671 10.3384C27.6763 10.2986 27.6922 10.2533 27.7022 10.2377C27.7123 10.2221 27.7346 10.1701 27.7518 10.1222C27.769 10.0742 27.7957 10.0171 27.8112 9.99515C27.8267 9.97321 27.8567 9.91907 27.8779 9.87484C27.8991 9.83061 27.932 9.77037 27.9511 9.74096C27.9701 9.71157 27.9915 9.67784 27.9987 9.66601C28.0418 9.59474 28.1439 9.44646 28.1691 9.41858C28.1854 9.40051 28.2649 9.29047 28.3458 9.17402C28.554 8.87447 28.8069 8.5281 28.926 8.37945C29.0285 8.25153 29.1439 8.1007 29.1574 8.07728C29.1651 8.06381 29.1955 8.02158 29.2249 7.98343C29.2544 7.94529 29.3091 7.87269 29.3464 7.8221C29.3837 7.77151 29.4367 7.70513 29.4642 7.67457C29.4916 7.64402 29.514 7.61285 29.514 7.6053C29.514 7.59774 29.5364 7.56657 29.5638 7.53602C29.5911 7.50546 29.651 7.42725 29.6968 7.36221C29.7426 7.29717 29.8213 7.19074 29.8715 7.1257C29.9877 6.97526 30.1726 6.72927 30.2815 6.58023C30.328 6.51656 30.4099 6.40641 30.4636 6.33543C30.5638 6.20285 30.5739 6.18927 30.6687 6.05892C30.6993 6.01691 30.7533 5.94411 30.7887 5.89713C30.8242 5.85016 30.8646 5.79062 30.8786 5.76483C30.8925 5.73902 30.9256 5.69175 30.9521 5.65975C30.9996 5.60221 31.0453 5.53609 31.1465 5.37827C31.1751 5.33361 31.2253 5.26209 31.258 5.21933C31.3232 5.13423 31.6831 4.58735 31.7156 4.52403C31.7267 4.50235 31.7518 4.46983 31.7713 4.45176C31.7909 4.4337 31.8211 4.38669 31.8386 4.34731C31.856 4.30794 31.885 4.25768 31.903 4.23563C31.9372 4.19362 32.0015 4.08857 32.069 3.96438C32.1364 3.84061 32.1826 3.76486 32.2329 3.69623C32.2594 3.66009 32.2872 3.61175 32.2948 3.58881C32.3024 3.56586 32.3325 3.50711 32.3616 3.45824C32.3908 3.40937 32.4147 3.36228 32.4147 3.3536C32.4147 3.34491 32.4439 3.28146 32.4797 3.21261C32.5155 3.14374 32.5447 3.08172 32.5447 3.07477C32.5447 3.06782 32.5654 3.02753 32.5906 2.98525C32.6158 2.94297 32.642 2.88746 32.6488 2.86192C32.6556 2.83636 32.6776 2.78894 32.6976 2.75654C32.7177 2.72412 32.7483 2.65326 32.7657 2.59906C32.7831 2.54486 32.8066 2.48277 32.8181 2.46109C32.852 2.39656 32.8796 2.30917 32.8968 2.21144C32.9058 2.16085 32.9217 2.09877 32.9322 2.07347C32.9847 1.94691 33 1.85221 33 1.65383V1.45722L32.9545 1.38101C32.9295 1.33909 32.909 1.29978 32.909 1.29364C32.9087 1.18123 32.5589 0.949696 32.3408 0.917517C32.2848 0.909265 32.1952 0.891487 32.1415 0.878006C32.0879 0.864538 32.0088 0.845669 31.9659 0.836077C31.9023 0.82186 31.3415 0.818628 28.9352 0.818628C25.7731 0.818628 25.9369 0.815395 25.8263 0.880056C25.8047 0.89267 25.755 0.909712 25.7157 0.917925C25.6517 0.931314 25.6333 0.943862 25.5363 1.03999C25.4769 1.09891 25.407 1.1826 25.3809 1.22596C25.3548 1.26932 25.317 1.32795 25.2969 1.35624C25.2768 1.38453 25.2485 1.44655 25.234 1.49405C25.2195 1.54155 25.1987 1.59416 25.1878 1.61097C25.1769 1.62776 25.1541 1.68543 25.1373 1.73912C25.1204 1.79281 25.0892 1.86783 25.0679 1.90583C25.0467 1.94383 25.0252 1.99562 25.0203 2.02091C25.0154 2.04621 24.9885 2.11277 24.9606 2.16883C24.9326 2.22488 24.903 2.29879 24.8948 2.33307C24.8865 2.36735 24.8575 2.43974 24.8304 2.49394C24.8032 2.54814 24.777 2.61023 24.7721 2.63191C24.7673 2.65359 24.7443 2.70976 24.7212 2.75674C24.6981 2.80371 24.669 2.87335 24.6566 2.91148C24.6441 2.94963 24.614 3.01433 24.5896 3.05526C24.5652 3.09619 24.5453 3.13642 24.5453 3.14467C24.5453 3.15293 24.5226 3.20354 24.4948 3.25714C24.467 3.31073 24.4349 3.38767 24.4235 3.42807C24.412 3.46849 24.3902 3.51762 24.3749 3.53724C24.3596 3.55687 24.3358 3.60299 24.322 3.63973C24.3081 3.67648 24.2792 3.73241 24.2577 3.76403C24.2361 3.79563 24.2078 3.85295 24.1947 3.89137C24.1714 3.9599 24.1338 4.04444 24.0155 4.29409C23.983 4.36274 23.9501 4.4337 23.9424 4.45176C23.9347 4.46983 23.9174 4.50106 23.9039 4.52115C23.8827 4.55304 23.8503 4.61429 23.7471 4.81786C23.7338 4.84415 23.7029 4.89929 23.6785 4.94038C23.6541 4.98146 23.6258 5.03919 23.6155 5.06863C23.6052 5.09808 23.5796 5.14738 23.5586 5.17818C23.5377 5.20897 23.5114 5.25614 23.5003 5.28299C23.4892 5.30987 23.4633 5.35702 23.4427 5.38782C23.4221 5.41862 23.3975 5.46451 23.3879 5.4898C23.3784 5.51509 23.3516 5.55648 23.3284 5.58178C23.3053 5.60707 23.2739 5.65284 23.2587 5.68347C23.2436 5.71411 23.2078 5.77563 23.1793 5.82019C23.1508 5.86474 23.1275 5.90544 23.1275 5.91061C23.1275 5.91579 23.0886 5.98435 23.0412 6.06297C22.9937 6.1416 22.9386 6.23344 22.9187 6.26708C22.8773 6.33689 22.8072 6.4448 22.754 6.52024C22.7198 6.56886 22.6872 6.61917 22.5714 6.80193C22.5446 6.84428 22.493 6.92263 22.4568 6.97603C22.3073 7.19653 22.2313 7.31474 22.2037 7.36973C22.1876 7.40174 22.1563 7.44942 22.1339 7.4757C22.0516 7.57276 21.8238 7.87176 21.7292 8.00704C21.6683 8.09404 21.6182 8.15801 21.5541 8.2305C21.5216 8.26722 21.4424 8.35785 21.378 8.4319C21.2662 8.56042 21.1207 8.71186 20.9943 8.83118C20.9417 8.88078 20.889 8.92581 20.7067 9.07695C20.6761 9.10224 20.6264 9.13772 20.5961 9.15578C20.5657 9.17385 20.5156 9.20452 20.4847 9.22394C20.3647 9.29926 20.1262 9.33764 20.0111 9.30012C19.9019 9.2645 19.8837 9.25462 19.8317 9.2028C19.8022 9.17333 19.7504 9.12661 19.7167 9.09898C19.683 9.07136 19.6425 9.02701 19.6266 9.00043C19.6107 8.97386 19.5819 8.93346 19.5625 8.91064C19.5432 8.88783 19.5147 8.83063 19.4992 8.78352C19.4836 8.73642 19.4622 8.69053 19.4515 8.68154C19.4209 8.65595 19.4068 8.62168 19.394 8.54267C19.3875 8.50244 19.3712 8.44506 19.3576 8.41518C19.3056 8.30055 19.2851 8.17862 19.2512 7.78268C19.2217 7.43932 19.218 7.0167 19.2378 6.27161C19.2508 5.78462 19.2595 5.3082 19.2709 4.47147C19.2777 3.97084 19.2931 3.46783 19.3125 3.11151C19.3269 2.84643 19.3224 1.88988 19.306 1.73184C19.2773 1.45513 19.2648 1.35642 19.2527 1.31137C19.2286 1.2212 19.2132 1.17718 19.1999 1.16105C19.1925 1.15203 19.175 1.09825 19.1609 1.04154C19.1469 0.984819 19.124 0.922747 19.11 0.903616C19.096 0.884471 19.0534 0.822043 19.0153 0.764886C18.9311 0.638337 18.8051 0.508491 18.7289 0.469702C18.6979 0.453882 18.6403 0.421414 18.6009 0.397526C18.5616 0.373651 18.4913 0.343824 18.4448 0.331249C18.3983 0.318674 18.324 0.29183 18.2796 0.271595C18.2277 0.247904 18.1583 0.229968 18.0845 0.221203C17.9415 0.204201 17.8051 0.179551 17.788 0.167607C17.7393 0.133535 17.33 0.080359 16.7799 0.0366037C16.6905 0.0294819 16.5763 0.0180633 16.5263 0.0112044C16.4149 -0.00403768 14.2411 -0.00359101 14.0939 0.0117036Z" fill="url(#paint0_linear_24_914)"/><defs><linearGradient id="paint0_linear_24_914" x1="0" y1="0" x2="34.5419" y2="2.34674" gradientUnits="userSpaceOnUse"><stop stop-color="#1474EB"/><stop offset="0.5" stop-color="#6F14EB"/><stop offset="1" stop-color="#E218EF"/></linearGradient></defs></svg>